<svg width="3710" height="2184" viewBox="0 0 3710 2184" fill="none" xmlns="http://www.w3.org/2000/svg">
<path d="M566.199 901.76C173.871 878.92 -140.762 463.853 68.0056 222.96C229.918 36.1468 445.803 308.08 647.156 171.067C956.931 -39.7064 1458.8 -78.0265 1525.23 187.68C1591.65 453.387 1371.61 868.547 1207.63 893.454C1043.64 918.36 566.199 901.76 566.199 901.76" fill="#E7F3FE"/>
<path d="M617.056 339.213C621.208 438.853 620.169 492.827 583.843 534.334C547.517 575.854 445.803 565.48 445.803 565.48C445.803 565.48 435.769 712.16 293.577 718.387C151.384 724.614 130.972 535.72 242.373 487.28C348.42 441.173 382.144 427.773 418.816 313.613C452.319 209.307 556.859 229.187 581.768 272.787C606.677 316.374 617.056 339.213 617.056 339.213Z" fill="#303C60"/>
<path d="M570.351 847.787C570.351 847.787 637.468 860.934 640.928 860.24C644.388 859.547 717.734 827.027 725.344 831.867C732.956 836.707 777.24 855.4 786.927 859.547C796.614 863.694 781.391 865.08 773.78 865.08C766.168 865.08 722.578 847.094 717.734 850.547C712.89 854.014 755.789 860.934 755.789 863.694C755.789 866.467 640.928 892.76 634.009 892.76C627.089 892.76 573.811 887.92 573.811 887.92L570.351 847.787" fill="#E38540"/>
<path d="M514.649 481.227C550.804 488.32 572.081 526.587 579 560.094C585.919 593.614 514.649 481.227 514.649 481.227Z" fill="#6791C9"/>
<path d="M454.106 455.454C454.106 455.454 384.567 502.16 347.202 525C309.838 547.827 360.695 793.814 373.15 885.147C385.604 976.48 601.488 893.454 601.488 893.454C601.488 893.454 586.958 816.64 605.639 693.134C619.022 604.667 570.004 549.214 541.982 510.814C471.254 413.894 454.106 455.454 454.106 455.454Z" fill="#75A1DE"/>
<path d="M385.604 526.027C465.523 623.6 492.538 641.84 472.788 707.667C457.22 759.56 452.03 778.24 448.916 795.893C445.803 813.533 597.336 784.467 597.336 784.467L596.299 841.56C596.299 841.56 476.94 898.64 418.816 910.053C360.695 921.48 324.368 907.987 324.368 907.987L385.604 526.027" fill="#6791C9"/>
<path d="M1386.36 916.8H440.788C433.963 916.8 428.428 911.267 428.428 904.44C428.428 897.613 433.963 892.08 440.788 892.08H1386.36C1393.19 892.08 1398.72 897.613 1398.72 904.44C1398.72 911.267 1393.19 916.8 1386.36 916.8Z" fill="#2E5B9A"/>
<path d="M479.707 357.2L443.727 463.76C443.727 463.76 483.167 570.667 516.38 546.787C527.719 538.64 512.228 474.133 512.228 474.133L536.445 387.64L479.707 357.2" fill="#F09959"/>
<path d="M364.845 521.88C315.16 527.4 310.875 594.534 288.041 706.627C265.207 818.72 272.069 892.707 282.852 906.947C308.799 941.2 600.449 821.84 636.777 822.88C661.848 823.587 640.928 781.36 640.928 781.36L362.769 823.907C362.769 823.907 402.211 694.173 402.211 627.747C402.211 561.32 383.528 519.8 364.845 521.88" fill="#F09959"/>
<path d="M623.284 783.427C652.346 776.173 694.899 759.56 703.202 766.827C711.506 774.093 745.756 825.987 757.174 840.52C768.59 855.054 751.984 843.627 739.53 832.213C727.075 820.8 716.695 814.573 716.695 814.573C716.695 814.573 701.127 829.107 686.596 837.4C672.066 845.707 666.876 829.107 641.967 824.947C617.056 820.8 554.783 842.6 554.783 842.6L623.284 783.427" fill="#F09959"/>
<path d="M370.382 513.573C339.936 514.96 316.411 540.56 308.108 580C299.804 619.44 275.586 744.68 275.586 744.68C275.586 744.68 270.743 748.147 321.254 757.147C371.766 766.133 413.282 755.76 413.282 755.76C413.282 755.76 423.66 684.48 420.892 635.36C418.126 586.227 407.054 539.867 389.064 523.96C371.074 508.04 370.382 513.573 370.382 513.573" fill="#75A1DE"/>
<path d="M512.228 474.134L536.445 387.64L479.707 357.2L471.04 382.867C469.155 468.8 491.165 497.534 506 508.04C510.633 511.32 514.617 508.787 517.957 503.427C515.52 487.854 512.228 474.134 512.228 474.134" fill="#E38540"/>
<path d="M627.436 367.24C627.436 413.52 621.911 470.28 581.768 468.947C519.493 466.88 480.252 418.467 480.252 372.174C480.252 325.88 512.812 288.347 552.978 288.347C593.142 288.347 627.436 320.947 627.436 367.24Z" fill="#F09959"/>
<path d="M1092.17 892.04H858.724L954.75 680.787C957.552 674.627 963.698 670.667 970.471 670.667H1182.33C1187.24 670.667 1190.49 675.734 1188.47 680.2L1092.17 892.04Z" fill="#9BD6E8"/>
<path d="M1091.67 892.04H660.995C660.995 877.04 673.159 864.88 688.163 864.88H1091.67V892.04Z" fill="#9BD6E8"/>
<path d="M1182.33 670.667H995.627C988.855 670.667 982.708 674.627 979.906 680.787L883.882 892.04H1092.17L1188.47 680.2C1190.49 675.734 1187.24 670.667 1182.33 670.667" fill="#7BCEE8"/>
<path d="M558.934 272.267C603.045 269.147 629.166 309.454 636.778 344.747C642.268 370.214 639.544 375.187 639.544 375.187C639.544 375.187 634.7 382.107 600.104 384.187C565.507 386.267 561.356 385.574 561.356 385.574L559.28 345.44L548.9 384.187C548.9 384.187 543.366 391.8 521.916 381.414C500.466 371.04 490.778 336.44 490.778 336.44C490.778 336.44 485.935 313.614 502.542 298.387C519.147 283.16 558.934 272.267 558.934 272.267" fill="#303C60"/>
<path d="M526.116 376.387C521.886 404.387 499.536 424.227 476.198 420.707C452.859 417.173 437.37 391.613 441.6 363.613C445.832 335.613 468.182 315.773 491.52 319.307C514.859 322.827 530.348 348.387 526.116 376.387Z" fill="#D54A41"/>
<path d="M509.256 375.64C505.339 401.56 486.989 420.294 468.273 417.467C449.556 414.627 437.559 391.32 441.476 365.4C445.395 339.467 463.744 320.747 482.46 323.574C501.178 326.4 513.175 349.707 509.256 375.64" fill="#F39892"/>
<path d="M480.653 369.84C478.5 384.094 470.741 394.734 463.32 393.614C455.9 392.494 451.629 380.027 453.783 365.787C455.935 351.547 463.695 340.907 471.115 342.027C478.535 343.147 482.805 355.6 480.653 369.84" fill="#F2E5DE"/>
<path d="M479.533 320.013C499.773 244.76 569.639 255.733 587.304 266.213C602.18 275.04 604.255 287.493 604.255 287.493C604.255 287.493 585.055 271.92 552.361 277.627C521.337 283.04 502.887 301.333 500.292 321.56C498.969 331.88 479.533 320.013 479.533 320.013" fill="#D54A41"/>
<path d="M169.029 562.92H168.876C167.996 562.827 167.352 562.054 167.436 561.174C169.253 542.147 178.764 522.587 194.216 506.094C211.687 487.454 236.551 472.76 266.119 463.614C332.004 443.24 389.48 417.334 425.597 306.2C425.871 305.36 426.773 304.894 427.615 305.174C428.455 305.44 428.915 306.347 428.641 307.187C412.043 358.254 389.448 395.44 359.569 420.867C333.216 443.294 303.529 455.387 267.064 466.667C238.027 475.654 213.643 490.04 196.551 508.28C181.58 524.254 172.372 543.147 170.621 561.48C170.541 562.307 169.845 562.92 169.029 562.92" fill="#303C60"/>
<path d="M198.783 486.12C198.305 486.12 197.832 485.907 197.517 485.494C196.975 484.8 197.103 483.8 197.801 483.254C198.081 483.04 226.233 461.48 266.939 452.507C345.087 435.294 397.553 388.294 418.665 316.614C418.916 315.774 419.803 315.28 420.652 315.534C421.5 315.787 421.985 316.68 421.736 317.52C408.693 361.8 384.156 396.747 348.808 421.387C326.045 437.267 298.732 448.787 267.627 455.64C227.656 464.44 200.035 485.574 199.761 485.787C199.471 486.014 199.124 486.12 198.783 486.12" fill="#303C60"/>
<path d="M1200.73 463.147H989.947C987.971 463.147 986.952 461.547 987.671 459.56L1030.43 342.094C1031.15 340.12 1033.33 338.52 1035.31 338.52H1246.09C1248.07 338.52 1249.08 340.12 1248.36 342.094L1205.61 459.56C1204.89 461.547 1202.71 463.147 1200.73 463.147Z" fill="#9EC8FF"/>
<path d="M1198.19 457.654H996.487C994.642 457.654 993.691 456.16 994.361 454.307L1033.29 347.347C1033.97 345.507 1036.01 344.013 1037.85 344.013H1239.55C1241.39 344.013 1242.35 345.507 1241.67 347.347L1202.75 454.307C1202.07 456.16 1200.03 457.654 1198.19 457.654" fill="white"/>
<path d="M1194.55 450.694H1005.19C1003.12 450.694 1002.05 449.014 1002.81 446.934L1036.37 354.734C1037.12 352.654 1039.41 350.974 1041.49 350.974H1230.84C1232.91 350.974 1233.99 352.654 1233.23 354.734L1199.67 446.934C1198.92 449.014 1196.61 450.694 1194.55 450.694Z" fill="#9EC8FF"/>
<path d="M1152.61 400.827C1145.65 419.934 1124.53 435.427 1105.43 435.427C1086.32 435.427 1076.47 419.934 1083.41 400.827C1090.37 381.72 1111.51 366.227 1130.61 366.227C1149.72 366.227 1159.57 381.72 1152.61 400.827Z" fill="white"/>
<path d="M1147.81 400.827C1141.81 417.28 1123.63 430.627 1107.17 430.627C1090.72 430.627 1082.24 417.28 1088.23 400.827C1094.21 384.373 1112.41 371.04 1128.87 371.04C1145.31 371.04 1153.8 384.373 1147.81 400.827Z" fill="#9EC8FF"/>
<path d="M1133.28 399.24L1120.11 405.52L1106.92 411.813L1111.51 399.24L1116.08 386.667L1124.68 392.947L1133.28 399.24" fill="white"/>
<path d="M877.891 295.707C874.108 295.707 869.559 299.08 868.156 302.947L862.112 319.547C861.54 321.12 861.57 322.533 862.195 323.427C862.871 324.387 864.119 324.6 865.047 324.6H881.654C885.502 324.6 889.96 321.28 891.387 317.36L897.431 300.747C898.004 299.173 897.974 297.76 897.35 296.88C896.674 295.907 895.426 295.707 894.498 295.707H877.891ZM881.654 331H865.047C861.637 331 858.687 329.573 856.952 327.093C855.112 324.467 854.802 320.92 856.099 317.36L862.143 300.747C864.479 294.333 871.396 289.307 877.891 289.307H894.498C897.908 289.307 900.859 290.72 902.592 293.2C904.431 295.827 904.742 299.373 903.444 302.947L897.4 319.547C895.064 325.96 888.147 331 881.654 331Z" fill="#9CD499"/>
<path d="M852.203 366.28C848.42 366.28 843.871 369.667 842.468 373.52L836.424 390.12C835.852 391.694 835.881 393.107 836.507 394C837.181 394.974 838.431 395.173 839.359 395.173H855.966C859.814 395.173 864.272 391.854 865.699 387.934L871.744 371.334C872.316 369.76 872.285 368.347 871.661 367.454C870.985 366.48 869.737 366.28 868.808 366.28H852.203ZM855.966 401.573H839.359C835.948 401.573 832.999 400.147 831.264 397.68C829.424 395.053 829.114 391.494 830.411 387.934L836.455 371.334C838.791 364.907 845.708 359.88 852.203 359.88H868.808C872.22 359.88 875.17 361.307 876.904 363.773C878.744 366.413 879.053 369.96 877.756 373.52L871.712 390.12C869.376 396.547 862.46 401.573 855.966 401.573" fill="#9CD499"/>
<path d="M826.515 436.867C822.666 436.867 818.208 440.174 816.78 444.094L810.736 460.707C810.164 462.28 810.195 463.694 810.819 464.587C811.495 465.547 812.743 465.747 813.671 465.747H830.278C834.126 465.747 838.584 462.44 840.011 458.507L846.056 441.907C846.628 440.334 846.598 438.92 845.972 438.027C845.298 437.067 844.05 436.867 843.122 436.867H826.515ZM830.278 472.147H813.671C810.26 472.147 807.31 470.734 805.576 468.254C803.736 465.627 803.426 462.08 804.723 458.507L810.767 441.907C813.103 435.494 820.02 430.454 826.515 430.454H843.122C846.531 430.454 849.482 431.88 851.216 434.36C853.055 436.987 853.365 440.534 852.069 444.094L846.026 460.707C843.69 467.12 836.772 472.147 830.278 472.147" fill="#9EC8FF"/>
<path d="M1018.28 317.413H926.947C925.235 317.413 924.343 316.013 924.967 314.307C925.589 312.587 927.501 311.187 929.213 311.187H1020.55C1022.26 311.187 1023.15 312.587 1022.53 314.307C1021.91 316.013 1019.99 317.413 1018.28 317.413Z" fill="#9EC8FF"/>
<path d="M1013.75 329.867H922.414C920.702 329.867 919.81 328.467 920.434 326.76C921.056 325.04 922.968 323.64 924.68 323.64H1016.02C1017.73 323.64 1018.62 325.04 1018 326.76C1017.37 328.467 1015.46 329.867 1013.75 329.867Z" fill="#9EC8FF"/>
<path d="M994.483 382.8H903.147C901.435 382.8 900.544 381.4 901.167 379.694C901.791 377.974 903.701 376.573 905.415 376.573H996.749C998.463 376.573 999.353 377.974 998.731 379.694C998.107 381.4 996.195 382.8 994.483 382.8Z" fill="#9EC8FF"/>
<path d="M989.95 395.254H898.614C896.902 395.254 896.011 393.853 896.635 392.147C897.258 390.427 899.168 389.027 900.882 389.027H992.218C993.93 389.027 994.82 390.427 994.196 392.147C993.574 393.853 991.663 395.254 989.95 395.254Z" fill="#9EC8FF"/>
<path d="M968.04 455.454H876.704C874.991 455.454 874.1 454.054 874.723 452.347C875.347 450.627 877.258 449.227 878.971 449.227H970.305C972.019 449.227 972.911 450.627 972.287 452.347C971.663 454.054 969.752 455.454 968.04 455.454Z" fill="#9EC8FF"/>
<path d="M963.507 467.907H872.171C870.459 467.907 869.567 466.507 870.191 464.8C870.813 463.08 872.725 461.68 874.437 461.68H965.773C967.485 461.68 968.376 463.08 967.753 464.8C967.129 466.507 965.219 467.907 963.507 467.907Z" fill="#9EC8FF"/>
<path d="M877.788 321.653C877.507 321.653 877.224 321.613 876.947 321.547C875.98 321.28 875.193 320.573 874.819 319.653L868.551 304.08C867.889 302.44 868.684 300.573 870.323 299.92C871.961 299.253 873.827 300.053 874.487 301.693L879.179 313.347L916.228 284.787C917.627 283.707 919.637 283.96 920.716 285.36C921.796 286.76 921.535 288.773 920.136 289.853L879.741 320.987C879.175 321.427 878.487 321.653 877.788 321.653" fill="#F37168"/>
<path d="M852.1 392.227C851.819 392.227 851.536 392.2 851.259 392.12C850.293 391.854 849.505 391.16 849.132 390.227L842.861 374.654C842.201 373.014 842.996 371.147 844.635 370.494C846.275 369.827 848.139 370.627 848.799 372.267L853.491 383.92L890.54 355.36C891.94 354.28 893.949 354.547 895.028 355.947C896.108 357.334 895.847 359.347 894.447 360.427L854.053 391.56C853.487 392 852.799 392.227 852.1 392.227" fill="#F37168"/>
<path d="M1456.03 235.413H1105.21L1114.28 210.507H1465.09L1456.03 235.413Z" fill="#9EC8FF"/>
<path d="M1442.43 272.787H1091.61L1100.68 247.88H1451.49L1442.43 272.787" fill="#9EC8FF"/>
<path d="M1053.57 571.48H795.963C792.596 571.48 790.845 568.734 792.069 565.36C793.295 562 797.052 559.24 800.417 559.24H1058.03C1061.4 559.24 1063.15 562 1061.92 565.36C1060.69 568.734 1056.95 571.48 1053.57 571.48" fill="#9EC8FF"/>
<path d="M1043.68 598.68H786.063C782.696 598.68 780.944 595.934 782.17 592.56C783.395 589.2 787.152 586.44 790.518 586.44H1048.13C1051.49 586.44 1053.25 589.2 1052.03 592.56C1050.8 595.934 1047.04 598.68 1043.68 598.68Z" fill="#9EC8FF"/>
<path d="M1284.84 828.68C1284.84 824.36 1336.89 680.48 1301.69 587.854C1277.05 522.987 1273.16 445.16 1273.16 445.16C1273.16 445.16 1225.17 513.907 1257.6 618.974C1277.56 683.64 1285.71 701.56 1287.43 720.587C1289.16 739.614 1279.65 834.734 1279.65 834.734L1284.84 828.68Z" fill="#9CD499"/>
<path d="M1271.89 450.254C1267.95 457.04 1260.29 471.934 1254.73 493.227C1247.56 520.654 1242.51 564.667 1259.12 618.507C1265.87 640.36 1271.21 656.733 1275.52 669.88C1284 695.827 1287.87 707.667 1289.03 720.44C1290.53 737.08 1283.69 809.72 1281.73 829.84L1283.32 828C1283.51 827.04 1284.07 825.147 1285.48 820.387C1315.55 719.88 1320.51 641.84 1300.2 588.413C1279.32 533.467 1273.25 468.534 1271.89 450.254V450.254ZM1279.65 836.333C1279.44 836.333 1279.23 836.293 1279.01 836.213C1278.37 835.933 1277.99 835.267 1278.05 834.573C1278.15 833.627 1287.53 739.387 1285.84 720.734C1284.71 708.32 1280.88 696.587 1272.48 670.88C1268.17 657.707 1262.81 641.32 1256.07 619.454C1239.2 564.814 1244.37 520.134 1251.67 492.267C1259.6 462.014 1271.36 444.96 1271.85 444.24C1272.24 443.68 1272.95 443.44 1273.6 443.627C1274.27 443.814 1274.72 444.4 1274.76 445.08C1274.8 445.853 1278.92 523.413 1303.2 587.28C1316.36 621.92 1319 667.587 1311.05 723.04C1304.71 767.307 1293.39 805.147 1288.55 821.307C1287.45 824.987 1286.49 828.173 1286.44 828.747C1286.44 829.133 1286.31 829.427 1286.05 829.72L1280.87 835.773C1280.55 836.133 1280.11 836.333 1279.65 836.333Z" fill="#74B570"/>
<path d="M1296.08 843.387C1288.29 683.4 1326.35 596.067 1404.17 526.88C1482 457.707 1485.45 439.547 1485.45 439.547C1485.45 439.547 1473.35 574.44 1428.39 621.147C1383.41 667.84 1317.69 702.427 1308.19 726.64C1298.67 750.854 1302.13 832.147 1302.13 832.147L1296.08 846.84V843.387" fill="#9CD499"/>
<path d="M1286.56 857.213C1285.71 854.627 1303 707.613 1366.12 698.973C1429.25 690.32 1443.95 705.027 1487.19 698.107C1518.04 693.173 1541.67 683.4 1541.67 683.4C1541.67 683.4 1525.29 725.08 1469.03 742.213C1429.25 754.307 1377.36 734.427 1347.09 739.613C1316.83 744.8 1301.27 809.653 1301.27 809.653L1296.08 843.387L1286.56 857.213" fill="#9CD499"/>
<path d="M1295.21 835.467C1294.4 835.467 1293.69 834.853 1293.63 834.013C1293.52 832.987 1284.57 729.707 1328.4 650.627C1351.05 609.787 1375.77 586.12 1399.68 563.227C1421.96 541.894 1443 521.747 1458.95 489.84C1459.35 489.053 1460.31 488.733 1461.09 489.133C1461.89 489.52 1462.21 490.493 1461.81 491.28C1445.61 523.68 1424.37 544.013 1401.89 565.533C1378.16 588.267 1353.61 611.76 1331.2 652.187C1287.85 730.374 1296.71 832.694 1296.8 833.72C1296.89 834.6 1296.24 835.387 1295.36 835.467H1295.21" fill="#74B570"/>
<path d="M1290.89 814.72C1290.75 814.72 1290.59 814.694 1290.44 814.654C1289.6 814.414 1289.11 813.52 1289.35 812.667C1305.91 755.614 1324.91 722.32 1349.13 707.907C1370.8 695.013 1393.2 698.974 1416.91 703.16C1422.71 704.187 1428.71 705.254 1434.65 706.027C1486.16 712.787 1511.29 700.267 1511.53 700.147C1512.32 699.733 1513.28 700.04 1513.69 700.827C1514.09 701.614 1513.79 702.574 1513 702.987C1511.96 703.52 1486.88 716.107 1434.23 709.2C1428.23 708.414 1422.19 707.347 1416.35 706.32C1393.24 702.227 1371.43 698.374 1350.77 710.654C1327.28 724.64 1308.73 757.334 1292.43 813.56C1292.23 814.267 1291.59 814.72 1290.89 814.72Z" fill="#74B570"/>
<path d="M1373.48 592.907C1373 592.907 1372.52 592.693 1372.21 592.28C1371.67 591.587 1371.8 590.573 1372.49 590.04C1372.8 589.8 1403.56 566.36 1446.24 558.173C1447.11 558.013 1447.95 558.573 1448.12 559.44C1448.28 560.307 1447.72 561.147 1446.85 561.307C1404.91 569.36 1374.75 592.347 1374.45 592.573C1374.16 592.8 1373.81 592.907 1373.48 592.907" fill="#74B570"/>
<path d="M1324.61 662.52C1324.33 662.52 1324.05 662.44 1323.8 662.294C1323.04 661.84 1322.79 660.867 1323.24 660.107C1345.76 622.134 1372.13 612.56 1429.64 594.534C1430.48 594.267 1431.37 594.747 1431.64 595.587C1431.91 596.427 1431.44 597.32 1430.6 597.587C1373.89 615.36 1347.91 624.774 1325.99 661.734C1325.69 662.24 1325.16 662.52 1324.61 662.52Z" fill="#74B570"/>
<path d="M1310.63 896.56H1272.01C1258.37 896.56 1246.67 886.88 1244.11 873.48L1231.65 808.36H1350.99L1338.53 873.48C1335.97 886.88 1324.27 896.56 1310.63 896.56" fill="#F39892"/>
<path d="M1347.96 824.96H1235.55C1233.77 824.96 1232.35 823.534 1232.35 821.76C1232.35 820 1233.77 818.56 1235.55 818.56H1347.96C1349.73 818.56 1351.16 820 1351.16 821.76C1351.16 823.534 1349.73 824.96 1347.96 824.96Z" fill="#D54A41"/>
<path d="M1943.47 914.013C1943.47 914.013 1787.77 720.947 1881.19 537.227C1974.61 353.494 2152.11 397.094 2401.23 210.254C2703.67 -16.573 2916.03 -29.0397 3185.96 70.1203C3338.56 126.174 3363.47 356.614 3606.36 499.854C3825.32 628.987 3646.84 848.627 3531.63 882.88C3416.4 917.133 3338.56 917.134 3338.56 917.134L1943.47 914.013" fill="#E7F3FE"/>
<path d="M2870.47 498.934C2831.6 577.827 2782.88 793.387 2769.59 805.2C2756.29 817.014 2679.52 862.787 2666.23 884.934C2652.95 907.08 2658.85 899.694 2664.76 901.174C2670.67 902.654 3004.35 904.12 3004.35 904.12C3004.35 904.12 2965.96 675.267 2961.53 673.787C2957.11 672.32 2870.47 498.934 2870.47 498.934" fill="#A2DFF2"/>
<path d="M2815.2 903.054C2876.49 903.48 2941.16 903.827 2976.76 904L2928.01 612.494C2902.03 562.094 2870.47 498.934 2870.47 498.934C2865.56 508.88 2860.51 521 2855.39 534.6C2850.33 753.547 2881.87 814.907 2858.17 853.92C2839.69 884.36 2822.83 897.987 2815.2 903.054" fill="#96CFE0"/>
<path d="M3508.05 918.734H1905.72C1898.89 918.734 1893.36 913.2 1893.36 906.374C1893.36 899.547 1898.89 894.014 1905.72 894.014H3508.05C3514.88 894.014 3520.41 899.547 3520.41 906.374C3520.41 913.2 3514.88 918.734 3508.05 918.734Z" fill="#2E5B9A"/>
<path d="M3075.11 403.72C3130.52 454.88 3253.89 503.387 3253.89 503.387C3253.89 503.387 3272.63 676.574 3259.84 774.627C3247.05 872.68 3254.16 892.573 3254.16 892.573H2999.79C2999.79 892.573 2965.64 845.2 2903.15 697.894C2863.36 604.094 2870.47 498.933 2870.47 498.933L3025.36 429.294L3075.11 403.72" fill="#A2DFF2"/>
<path d="M2999.79 892.573H3254.16C3254.16 892.573 3247.05 872.68 3259.84 774.627C3270.37 693.88 3259.52 562.214 3255.37 518.227L3232.23 508.32C3174.16 525.054 3140.68 611.68 3130.84 696.334C3124.25 752.974 3030.41 808.733 2969.03 839.44C2989.2 877.88 2999.79 892.573 2999.79 892.573Z" fill="#96CFE0"/>
<path d="M2937.41 225.96C2906.76 294.267 2943.56 357.52 2942.44 354.854C2941.33 352.187 2988.85 239.547 2988.85 239.547L2937.41 225.96Z" fill="#2E5B9A"/>
<path d="M3053.61 276.467L3092.51 418.614C3093.6 422.627 3092.67 426.894 3090.05 430.12C3080.92 441.36 3067.93 464.48 3041.73 471.894C3036.64 473.334 3030.37 473.72 3025.29 473.734C3019.95 473.747 3015.35 469.987 3014.33 464.747L2988.28 329.934L3053.61 276.467" fill="#F09959"/>
<path d="M3046.19 288.347L3031.97 294.174L2988.28 329.934L3011.73 449.454C3051.52 424.654 3057.32 407.92 3046.19 288.347" fill="#E38540"/>
<path d="M3052.19 339.347C3043.59 386.107 3008.59 417.733 2974.04 409.973C2939.48 402.227 2923 371.96 2927.05 311.28C2930.24 263.68 2953.71 211.933 2988.27 219.68C3022.83 227.427 3060.8 292.587 3052.19 339.347" fill="#F09959"/>
<path d="M3253.89 503.387C3305.36 515.014 3314.92 619.547 3331.65 729.8C3333.59 742.493 3343.47 849.893 3343.47 849.893C3343.47 849.893 3344.45 869.587 3324.76 879.427C3307.95 887.84 3301.13 894.187 3203.68 895.173C3110.09 896.12 2989.41 892.227 2989.41 892.227C2989.41 892.227 2988.35 857.4 2997.95 840.373C3012.39 814.787 3160.37 778.04 3174.16 776.067C3176.12 748.507 3160.56 648.773 3182.03 581.16C3196.8 534.64 3212.67 510.28 3232.56 503.92C3239.19 501.787 3246.27 501.667 3253.89 503.387" fill="#A2DFF2"/>
<path d="M3042.35 894.347C3088.48 895.04 3151.8 895.693 3203.68 895.173C3301.13 894.187 3307.95 887.84 3324.76 879.427C3344.45 869.587 3345.44 852.854 3345.44 852.854C3345.44 852.854 3335.49 738.56 3333.63 725.867C3322.8 652.04 3311.09 567.547 3283.87 526.774C3309.47 601.8 3313.59 665.094 3314.04 692.134C3314.28 705.827 3313.01 724.573 3309.01 737.68C3304.59 752.2 3293.27 761.307 3275.55 756.374C3240.11 746.534 3195.81 767.213 3195.81 767.213C3195.81 767.213 3229.28 755.387 3260.77 766.227C3292.28 777.054 3357.25 848.907 3286.37 875.494C3264.68 883.627 3134.77 890.253 3042.35 894.347" fill="#96CFE0"/>
<path d="M3005.83 843.654C3005.83 843.654 3018.95 821.347 3045.85 821.347C3072.76 821.347 3070.8 865.32 3066.85 879.747C3062.92 894.187 3047.17 894.854 3047.17 894.854L2989.41 892.227L3005.83 843.654Z" fill="#96CFE0"/>
<path d="M2947.28 904.867H2583.23C2577.73 904.867 2573.24 900.374 2573.24 894.88V892.014C2573.24 886.52 2577.73 882.04 2583.23 882.04H2947.28C2952.77 882.04 2957.27 886.52 2957.27 892.014V894.88C2957.27 900.374 2952.77 904.867 2947.28 904.867Z" fill="#75A1DE"/>
<path d="M2998.61 846.28C2942.17 825.947 2927.36 833.6 2914.61 829.88C2883.11 820.693 2875.23 828.56 2854.89 884.347C2850.84 895.467 2862.76 896.16 2874.57 896.16C2886.39 896.16 2900.83 873.187 2905.41 870.56C2910.01 867.947 2922.48 866.627 2922.48 866.627C2922.48 866.627 2918.55 866.627 2912.64 878.44C2906.73 890.253 2899.51 894.854 2908.71 894.854C2917.89 894.854 2919.2 879.747 2936.27 883.04C2953.32 886.32 2946.76 894.854 2989.41 894.187C3032.08 893.534 3064.27 894.187 3063.57 868.6C3062.92 844.32 3065.61 832.173 3042.57 827.907C3024.85 824.627 2998.61 846.28 2998.61 846.28" fill="#F09959"/>
<path d="M2999.35 846.28C3037.08 842.013 3026 889.027 3022.07 892.96C3018.13 896.893 3043.08 894.347 3043.08 894.347C3043.08 894.347 3054.8 875.493 3044.96 853.827C3035.11 832.173 3015.43 831.187 3015.43 831.187L2998.69 840.373L2999.35 846.28Z" fill="#A86B48"/>
<path d="M3038.75 842.2C3038.25 848.014 3028.36 851.947 3016.64 850.974C3004.91 849.987 2995.8 844.467 2996.29 838.64C2996.77 832.827 3006.67 828.894 3018.4 829.867C3030.12 830.854 3039.23 836.374 3038.75 842.2Z" fill="#2E5B9A"/>
<path d="M3035.75 839.294C3035.31 844.507 3026.47 848.014 3015.99 847.134C3005.52 846.267 2997.37 841.334 2997.81 836.134C2998.24 830.92 3007.09 827.414 3017.56 828.294C3028.04 829.16 3036.17 834.094 3035.75 839.294Z" fill="#3E6BAB"/>
<path d="M3029.2 836.88C3028.89 840.627 3022.52 843.16 3014.99 842.534C3007.44 841.894 3001.59 838.347 3001.89 834.6C3002.2 830.854 3008.57 828.334 3016.12 828.96C3023.65 829.587 3029.51 833.134 3029.2 836.88Z" fill="#F0CEB4"/>
<path d="M2569.91 832.76H2203.16C2183.87 832.76 2167.33 818.787 2163.84 799.547L2116.01 535.52C2111.51 510.627 2130.36 487.667 2155.33 487.667H2522.08C2541.37 487.667 2557.91 501.64 2561.39 520.88L2609.23 784.907C2613.73 809.8 2594.88 832.76 2569.91 832.76" fill="#75A1DE"/>
<path d="M2587.04 785.894L2538.23 527.334C2534.67 508.494 2517.79 494.814 2498.09 494.814H2125.4C2117.57 503.894 2113.65 516.334 2116.04 529.28L2165.55 798.854C2169.16 818.494 2186.28 832.76 2206.25 832.76H2546.92C2572.4 832.76 2591.64 810.28 2587.04 785.894" fill="#A8CEFF"/>
<path d="M2498.61 868.107H2428.99C2416.57 868.107 2406.51 857.054 2406.51 843.414V716.12C2406.51 694.414 2390.48 676.814 2370.72 676.814H2334.36C2314.59 676.814 2298.57 694.414 2298.57 716.12V858.68C2298.57 883.054 2316.63 902.774 2338.83 902.614L2528.83 901.307C2528.83 882.974 2515.29 868.107 2498.61 868.107Z" fill="#75A1DE"/>
<path d="M2301.33 718.973V859.347C2301.33 882.2 2319.05 900.88 2341.47 902.494L2526.89 901.334C2526.88 898.294 2512.27 892.76 2494.2 892.76H2418.89C2405.47 892.76 2394.57 881.867 2394.57 868.44V718.973C2394.57 697.6 2377.24 680.267 2355.87 680.267H2340.05C2318.67 680.267 2301.33 697.6 2301.33 718.973Z" fill="#A8CEFF"/>
<path d="M2689.48 851.933C2717.51 836.36 2751.76 841.56 2764.21 857.12C2776.67 872.693 2778.75 883.067 2750.72 883.067C2722.69 883.067 2666.65 885.147 2657.31 884.107C2647.97 883.067 2689.48 851.933 2689.48 851.933Z" fill="#F09959"/>
<path d="M2731 842.6C2761.09 835.334 2781.67 852.84 2806.77 869.573C2828.56 884.107 2832.95 898.24 2808.84 886.187C2773.56 868.547 2752.8 866.467 2752.8 866.467L2731 842.6Z" fill="#F09959"/>
<path d="M2703.59 851.84C2688.39 851.84 2675.12 846.987 2664.39 847.88C2653.65 848.787 2619.68 883.654 2625.04 886.334C2625.43 886.534 2625.84 886.707 2626.29 886.867C2634.36 889.84 2643.47 886.547 2648.01 879.254C2652.83 871.534 2660.64 862.56 2669.75 865.774C2684.95 871.134 2700.91 870.614 2700.91 870.614L2703.59 851.84" fill="#F09959"/>
<path d="M2694.67 889.294C2679.11 883.067 2704.01 831.174 2712.32 831.174C2720.63 831.174 2751.76 856.08 2751.76 856.08C2751.76 856.08 2744.44 860.214 2719.59 851.934C2713.36 849.854 2708.17 885.147 2700.91 889.294C2693.64 893.454 2694.67 889.294 2694.67 889.294" fill="#F7A96F"/>
<path d="M2927.03 338.613C2925.59 395.76 2945.05 405.427 2958.67 413.187C2972.29 420.947 3030.96 408.12 3039.57 393.987C3061.6 357.827 3043.05 324.12 3047.99 324.627C3052.92 325.133 3057.43 339.213 3070.27 357.48C3071.47 359.173 3079.81 370.467 3080.25 366.72C3086.21 315.547 3112.87 299.653 3106.52 247.893C3101.84 209.733 3077.63 212.76 3077.63 212.76C3077.63 212.76 3062 180.84 3013.36 184.467C2980.77 186.893 2951.72 199.587 2918.13 208.24C2884.53 216.88 2957.87 293.027 3001.44 265.2C3045.01 237.387 3023.51 298.667 3030.37 303.413C3037.25 308.16 3033.68 304.04 3036.84 335.4C3039.99 366.76 3000.17 387.227 2988.76 389.907C2952.27 398.493 2946.16 392.48 2938.17 378.733C2931.24 366.813 2927.03 338.613 2927.03 338.613" fill="#2E5B9A"/>
<path d="M3078.08 320.92C3073.89 335.32 3063.65 344.627 3055.23 341.694C3046.79 338.774 3046.55 327.067 3047.53 310.32C3048.43 295.227 3061.95 286.613 3070.39 289.547C3078.81 292.467 3082.27 306.52 3078.08 320.92Z" fill="#F09959"/>
<path d="M2280.67 282.254H1969.15C1965.75 282.254 1963 279.507 1963 276.107V142.054C1963 138.667 1965.75 135.92 1969.15 135.92H2280.67C2284.07 135.92 2286.81 138.667 2286.81 142.054V276.107C2286.81 279.507 2284.07 282.254 2280.67 282.254" fill="#B7E1FF"/>
<path d="M2273 275.387H1976.81C1974.08 275.387 1971.85 273.16 1971.85 270.427V179.32C1971.85 176.587 1974.08 174.36 1976.81 174.36H2273C2275.73 174.36 2277.96 176.587 2277.96 179.32V270.427C2277.96 273.16 2275.73 275.387 2273 275.387" fill="white"/>
<path d="M1986.29 158.107H1979.11C1977.59 158.107 1976.35 156.867 1976.35 155.347V149.427C1976.35 147.92 1977.59 146.68 1979.11 146.68H1986.29C1987.8 146.68 1989.04 147.92 1989.04 149.427V155.347C1989.04 156.867 1987.8 158.107 1986.29 158.107Z" fill="white"/>
<path d="M2009.35 158.107H2002.16C2000.65 158.107 1999.41 156.867 1999.41 155.347V149.427C1999.41 147.92 2000.65 146.68 2002.16 146.68H2009.35C2010.87 146.68 2012.11 147.92 2012.11 149.427V155.347C2012.11 156.867 2010.87 158.107 2009.35 158.107Z" fill="white"/>
<path d="M2032.41 158.107H2025.23C2023.71 158.107 2022.48 156.867 2022.48 155.347V149.427C2022.48 147.92 2023.71 146.68 2025.23 146.68H2032.41C2033.93 146.68 2035.17 147.92 2035.17 149.427V155.347C2035.17 156.867 2033.93 158.107 2032.41 158.107Z" fill="white"/>
<path d="M2265.51 196.507H2103.59C2100.93 196.507 2098.75 194.32 2098.75 191.667C2098.75 189 2100.93 186.813 2103.59 186.813H2265.51C2268.17 186.813 2270.35 189 2270.35 191.667C2270.35 194.32 2268.17 196.507 2265.51 196.507Z" fill="#B7E1FF"/>
<path d="M2143.72 271.227H1981.81C1979.15 271.227 1976.96 269.054 1976.96 266.387C1976.96 263.72 1979.15 261.547 1981.81 261.547H2143.72C2146.39 261.547 2148.56 263.72 2148.56 266.387C2148.56 269.054 2146.39 271.227 2143.72 271.227Z" fill="#B7E1FF"/>
<path d="M2173.55 271.227H2156.8C2155.88 271.227 2155.15 270.494 2155.15 269.574V263.2C2155.15 262.294 2155.88 261.547 2156.8 261.547H2173.55C2174.47 261.547 2175.2 262.294 2175.2 263.2V269.574C2175.2 270.494 2174.47 271.227 2173.55 271.227Z" fill="#B7E1FF"/>
<path d="M2198.8 271.227H2182.05C2181.15 271.227 2180.4 270.494 2180.4 269.574V263.2C2180.4 262.294 2181.15 261.547 2182.05 261.547H2198.8C2199.72 261.547 2200.47 262.294 2200.47 263.2V269.574C2200.47 270.494 2199.72 271.227 2198.8 271.227Z" fill="#B7E1FF"/>
<path d="M2267.05 217.613H1998.93C1997.13 217.613 1995.65 216.134 1995.65 214.32C1995.65 212.52 1997.13 211.04 1998.93 211.04H2267.05C2268.87 211.04 2270.35 212.52 2270.35 214.32C2270.35 216.134 2268.87 217.613 2267.05 217.613Z" fill="#B7E1FF"/>
<path d="M2267.05 231.787H1998.93C1997.13 231.787 1995.65 230.307 1995.65 228.507C1995.65 226.694 1997.13 225.214 1998.93 225.214H2267.05C2268.87 225.214 2270.35 226.694 2270.35 228.507C2270.35 230.307 2268.87 231.787 2267.05 231.787Z" fill="#B7E1FF"/>
<path d="M2353.84 385H2042.31C2038.92 385 2036.17 382.253 2036.17 378.867V244.8C2036.17 241.413 2038.92 238.667 2042.31 238.667H2353.84C2357.23 238.667 2359.99 241.413 2359.99 244.8V378.867C2359.99 382.253 2357.23 385 2353.84 385Z" fill="#9EC8FF"/>
<path d="M2346.17 378.133H2049.99C2047.24 378.133 2045.03 375.907 2045.03 373.173V282.067C2045.03 279.333 2047.24 277.107 2049.99 277.107H2346.17C2348.91 277.107 2351.13 279.333 2351.13 282.067V373.173C2351.13 375.907 2348.91 378.133 2346.17 378.133Z" fill="white"/>
<path d="M2059.45 260.854H2052.27C2050.75 260.854 2049.52 259.614 2049.52 258.107V252.187C2049.52 250.667 2050.75 249.427 2052.27 249.427H2059.45C2060.97 249.427 2062.2 250.667 2062.2 252.187V258.107C2062.2 259.614 2060.97 260.854 2059.45 260.854Z" fill="white"/>
<path d="M2082.52 260.854H2075.33C2073.81 260.854 2072.59 259.614 2072.59 258.107V252.187C2072.59 250.667 2073.81 249.427 2075.33 249.427H2082.52C2084.04 249.427 2085.27 250.667 2085.27 252.187V258.107C2085.27 259.614 2084.04 260.854 2082.52 260.854Z" fill="white"/>
<path d="M2105.59 260.854H2098.4C2096.88 260.854 2095.65 259.614 2095.65 258.107V252.187C2095.65 250.667 2096.88 249.427 2098.4 249.427H2105.59C2107.11 249.427 2108.33 250.667 2108.33 252.187V258.107C2108.33 259.614 2107.11 260.854 2105.59 260.854Z" fill="white"/>
<path d="M2338.67 299.254H2176.76C2174.09 299.254 2171.92 297.067 2171.92 294.413C2171.92 291.747 2174.09 289.56 2176.76 289.56H2338.67C2341.33 289.56 2343.52 291.747 2343.52 294.413C2343.52 297.067 2341.33 299.254 2338.67 299.254Z" fill="#9EC8FF"/>
<path d="M2216.89 373.974H2054.97C2052.32 373.974 2050.13 371.8 2050.13 369.134C2050.13 366.48 2052.32 364.294 2054.97 364.294H2216.89C2219.56 364.294 2221.73 366.48 2221.73 369.134C2221.73 371.8 2219.56 373.974 2216.89 373.974Z" fill="#9EC8FF"/>
<path d="M2246.72 373.974H2229.96C2229.05 373.974 2228.31 373.24 2228.31 372.32V365.947C2228.31 365.04 2229.05 364.294 2229.96 364.294H2246.72C2247.63 364.294 2248.37 365.04 2248.37 365.947V372.32C2248.37 373.24 2247.63 373.974 2246.72 373.974Z" fill="#9EC8FF"/>
<path d="M2271.97 373.974H2255.23C2254.31 373.974 2253.56 373.24 2253.56 372.32V365.947C2253.56 365.04 2254.31 364.294 2255.23 364.294H2271.97C2272.88 364.294 2273.63 365.04 2273.63 365.947V372.32C2273.63 373.24 2272.88 373.974 2271.97 373.974Z" fill="#9EC8FF"/>
<path d="M2340.23 320.36H2072.11C2070.29 320.36 2068.81 318.88 2068.81 317.067C2068.81 315.267 2070.29 313.787 2072.11 313.787H2340.23C2342.04 313.787 2343.52 315.267 2343.52 317.067C2343.52 318.88 2342.04 320.36 2340.23 320.36Z" fill="#9EC8FF"/>
<path d="M2340.23 334.547H2072.11C2070.29 334.547 2068.81 333.067 2068.81 331.254C2068.81 329.44 2070.29 327.973 2072.11 327.973H2340.23C2342.04 327.973 2343.52 329.44 2343.52 331.254C2343.52 333.067 2342.04 334.547 2340.23 334.547Z" fill="#9EC8FF"/>
<path d="M2475.19 349.2C2475.19 372.414 2456.36 391.227 2433.15 391.227C2409.93 391.227 2391.12 372.414 2391.12 349.2C2391.12 325.974 2409.93 307.16 2433.15 307.16C2456.36 307.16 2475.19 325.974 2475.19 349.2Z" fill="#9CD499"/>
<path d="M2428.97 364.72H2428.85C2427.99 364.694 2427.16 364.294 2426.57 363.64L2415.16 350.667C2413.99 349.334 2414.12 347.32 2415.45 346.147C2416.77 344.987 2418.8 345.107 2419.96 346.44L2429.15 356.88L2451.13 335.36C2452.39 334.134 2454.41 334.147 2455.65 335.414C2456.89 336.68 2456.87 338.707 2455.61 339.947L2431.21 363.814C2430.61 364.4 2429.81 364.72 2428.97 364.72" fill="white"/>
<path d="M2744.49 153.947H2477.24C2470.39 153.947 2464.79 148.334 2464.79 141.494V46.0003C2464.79 39.1469 2470.39 33.5469 2477.24 33.5469H2744.49C2751.35 33.5469 2756.95 39.1469 2756.95 46.0003V141.494C2756.95 148.334 2751.35 153.947 2744.49 153.947Z" fill="#9EC8FF"/>
<path d="M2500.07 135.774V202.214L2576.61 125.667C2576.61 125.667 2501.63 135.774 2500.07 135.774Z" fill="#9EC8FF"/>
<path d="M2731.28 142.014H2490.45C2484.64 142.014 2479.89 137.254 2479.89 131.454V56.0404C2479.89 50.2404 2484.64 45.4802 2490.45 45.4802H2731.28C2737.09 45.4802 2741.84 50.2404 2741.84 56.0404V131.454C2741.84 137.254 2737.09 142.014 2731.28 142.014Z" fill="white"/>
<path d="M2622.55 69.3599H2504.23C2501.37 69.3599 2499.03 67.0132 2499.03 64.1599C2499.03 61.3065 2501.37 58.9734 2504.23 58.9734H2622.55C2625.4 58.9734 2627.73 61.3065 2627.73 64.1599C2627.73 67.0132 2625.4 69.3599 2622.55 69.3599Z" fill="#9EC8FF"/>
<path d="M2721.37 89.2002H2501.92C2500.33 89.2002 2499.03 87.8936 2499.03 86.307V86.2536C2499.03 84.6669 2500.33 83.3601 2501.92 83.3601H2721.37C2722.96 83.3601 2724.25 84.6669 2724.25 86.2536V86.307C2724.25 87.8936 2722.96 89.2002 2721.37 89.2002Z" fill="#9EC8FF"/>
<path d="M2721.37 100.493H2501.92C2500.33 100.493 2499.03 99.1865 2499.03 97.6132V97.5465C2499.03 95.9599 2500.33 94.6666 2501.92 94.6666H2721.37C2722.96 94.6666 2724.25 95.9599 2724.25 97.5465V97.6132C2724.25 99.1865 2722.96 100.493 2721.37 100.493Z" fill="#9EC8FF"/>
<path d="M2676.01 137.854H2668.83C2667.31 137.854 2666.08 136.627 2666.08 135.107V129.187C2666.08 127.667 2667.31 126.44 2668.83 126.44H2676.01C2677.53 126.44 2678.76 127.667 2678.76 129.187V135.107C2678.76 136.627 2677.53 137.854 2676.01 137.854Z" fill="#9EC8FF"/>
<path d="M2699.08 137.854H2691.89C2690.37 137.854 2689.15 136.627 2689.15 135.107V129.187C2689.15 127.667 2690.37 126.44 2691.89 126.44H2699.08C2700.6 126.44 2701.83 127.667 2701.83 129.187V135.107C2701.83 136.627 2700.6 137.854 2699.08 137.854Z" fill="#9EC8FF"/>
<path d="M2722.15 137.854H2714.96C2713.44 137.854 2712.2 136.627 2712.2 135.107V129.187C2712.2 127.667 2713.44 126.44 2714.96 126.44H2722.15C2723.67 126.44 2724.89 127.667 2724.89 129.187V135.107C2724.89 136.627 2723.67 137.854 2722.15 137.854Z" fill="#9EC8FF"/>
<path d="M2165.85 2165.95C2165.85 2165.95 1781.6 1924.59 2044.21 1665.84C2306.81 1407.09 2658.25 1142.56 2893.83 1244.89C3129.4 1347.24 3108.2 1476.61 3366.95 1663.91C3625.69 1851.21 3565.84 1999.89 3519.49 2075.2C3473.15 2150.51 3465.43 2169.81 3465.43 2169.81L2165.85 2165.95Z" fill="#E7F3FE"/>
<path d="M2459.36 1480.84C2516.25 1430.16 2558.04 1460.39 2589.16 1494.17C2613.96 1521.11 2617.43 1527.08 2637.92 1554.97C2640.96 1559.12 2643.29 1563.72 2643.4 1568.85C2643.97 1599.71 2659.75 1730.12 2642.21 1775.12C2621.76 1827.57 2369.56 1851.59 2369.56 1851.59L2459.36 1480.84" fill="#303C60"/>
<path d="M2620.87 1804.99C2619.49 1804.99 2618.35 1803.91 2618.28 1802.52C2618.2 1801.08 2619.31 1799.87 2620.75 1799.79C2628.23 1799.41 2634.32 1796.05 2639.36 1789.51C2667.64 1752.87 2651.75 1630.56 2637.89 1564.05C2637.6 1562.65 2638.49 1561.28 2639.91 1560.99C2641.31 1560.68 2642.68 1561.59 2642.97 1563C2646 1577.52 2656.12 1629.07 2659.28 1682.76C2662.52 1737.92 2657.2 1774.89 2643.48 1792.68C2637.53 1800.39 2629.97 1804.53 2621 1804.99H2620.87" fill="#303C60"/>
<path d="M2480.69 1465.72C2371.35 1526.19 2438.03 1730.67 2299.32 1803.57C2260.91 1823.77 2142.85 1926.27 2220.2 2061.4C2270.8 2149.8 2422.01 2130.75 2471.8 2052.51C2521.59 1974.28 2480.69 1465.72 2480.69 1465.72" fill="#303C60"/>
<path d="M2189.68 1930.64L2189.33 1930.61C2187.91 1930.43 2186.91 1929.12 2187.09 1927.69C2187.2 1926.97 2189.57 1909.77 2200.48 1886.95C2210.53 1865.92 2230.04 1836.07 2265.92 1813.24C2330.09 1772.4 2372.69 1733.91 2423.07 1544.19C2423.43 1542.8 2424.85 1541.97 2426.24 1542.35C2427.63 1542.71 2428.45 1544.13 2428.08 1545.52C2403.75 1637.2 2379.61 1699.17 2352.15 1740.56C2326.63 1779 2300.39 1797.47 2268.72 1817.61C2202.05 1860.04 2192.35 1927.71 2192.25 1928.39C2192.08 1929.69 2190.96 1930.64 2189.68 1930.64" fill="#303C60"/>
<path d="M2192.07 1877.68C2191.6 1877.68 2191.11 1877.56 2190.68 1877.28C2189.47 1876.52 2189.11 1874.91 2189.88 1873.71C2205.73 1848.6 2225.93 1828.01 2249.91 1812.51C2340.03 1754.23 2354.95 1720.72 2429.37 1528.8C2429.89 1527.47 2431.4 1526.8 2432.73 1527.32C2434.08 1527.84 2434.73 1529.35 2434.23 1530.68C2397 1626.63 2374.76 1682.85 2350.44 1722.71C2324.31 1765.51 2294.83 1789.64 2252.73 1816.87C2229.39 1831.96 2209.72 1852.01 2194.27 1876.48C2193.77 1877.25 2192.93 1877.68 2192.07 1877.68" fill="#303C60"/>
<path d="M2476.92 1593.33C2439.27 1671.53 2445.05 1742.49 2445.05 1742.49C2445.05 1742.49 2449.4 1770 2466.79 1775.8C2484.16 1781.59 2508.77 1764.21 2507.33 1741.04C2505.88 1717.87 2513.12 1661.4 2521.81 1641.12C2530.49 1620.85 2476.92 1593.33 2476.92 1593.33" fill="#F09959"/>
<path d="M2277.99 2136.68C2280.36 2158.01 2275.03 2156.24 2293.99 2159.79C2312.96 2163.35 2346.75 2150.31 2346.75 2150.31L2308.81 2079.77L2277.99 2136.68" fill="#6791C9"/>
<path d="M2449.6 1700.49C2438.93 1735.17 2358.92 1708.49 2330.92 1716.49C2302.92 1724.49 2278.91 1841.85 2274.91 1947.2C2270.91 2052.55 2276.24 2136.56 2286.91 2149.89C2297.57 2163.23 2473.61 2168.56 2489.61 2163.23C2505.61 2157.89 2356.25 2091.23 2356.25 2091.23C2356.25 2091.23 2346.92 1968.53 2358.92 1905.85C2370.92 1843.19 2478.95 1760.51 2478.95 1760.51L2449.6 1700.49" fill="#F09959"/>
<path d="M2486.95 1711.16C2514.95 1753.84 2588.29 1748.51 2613.63 1783.17C2638.96 1817.84 2692.31 2008.55 2692.31 2008.55L2748.32 1815.17C2748.32 1815.17 2793.73 1807.55 2778.99 1839.19C2752.75 1895.44 2742.97 2076.96 2714.52 2102.75C2682.88 2131.41 2651.4 2108.08 2633.63 2057.88C2616.44 2009.32 2573.63 1904.52 2542.95 1864.52C2512.28 1824.51 2478.95 1760.51 2478.95 1760.51L2486.95 1711.16" fill="#F09959"/>
<path d="M2365.59 1716.49C2421.6 1781.84 2530.95 1779.17 2554.95 1771.17C2578.96 1763.17 2578.96 1763.17 2578.96 1763.17C2578.96 1763.17 2597.63 1756.51 2613.63 1775.17C2629.63 1793.84 2668.31 1911.2 2674.97 1937.87C2681.64 1964.53 2692.31 2008.55 2692.31 2008.55C2692.31 2008.55 2663.69 2042.88 2663.69 2077.56C2663.69 2112.23 2675.84 2112.52 2675.84 2112.52C2675.84 2112.52 2640.29 2104.56 2632.29 2083.23C2624.29 2061.88 2552.28 1868.52 2552.28 1868.52L2353.59 1872.52L2356.25 2091.23C2356.25 2091.23 2338.92 2075.21 2314.92 2091.23C2290.91 2107.23 2282.91 2144.56 2286.91 2149.89C2290.91 2155.23 2278.91 2155.23 2278.91 2151.23C2278.91 2147.23 2256.24 2049.88 2272.24 1889.85C2288.24 1729.83 2318.92 1712.49 2336.25 1711.16C2353.59 1709.83 2365.59 1716.49 2365.59 1716.49Z" fill="#75A1DE"/>
<path d="M2667.71 2109.76C2668.08 2109.89 2668.31 2109.89 2668.31 2109.89C2668.31 2109.89 2668.08 2109.85 2667.71 2109.76Z" fill="#6791C9"/>
<path d="M2675.4 2013.39C2663.84 2016.95 2644.28 2057.84 2644.28 2057.84C2644.28 2057.84 2599.83 1960.93 2586.49 1826.69L2570.63 1917.76C2592.53 1976.57 2626.91 2068.85 2632.29 2083.23C2639.61 2102.73 2669.13 2110.88 2673.17 2111.79C2672.07 2111.41 2669.63 2109.93 2667.6 2104.07C2666.44 2103.01 2659.76 2099.89 2658.51 2098.75C2647.84 2088.96 2652.28 2065.85 2659.4 2040.07C2666.51 2014.28 2686.96 2009.84 2675.4 2013.39" fill="#6791C9"/>
<path d="M2363.15 1872.33L2341.11 1771.56C2317.11 1805.35 2314.44 1920.93 2324.23 2000.05C2332.24 2064.95 2344.24 2081.79 2352.48 2088.56C2354.92 2089.99 2356.25 2091.23 2356.25 2091.23L2353.59 1872.52L2363.15 1872.33" fill="#6791C9"/>
<path d="M2299.32 1770.68C2340.23 1880.92 2319.77 1903.15 2373.59 2032.55C2403.65 2104.81 2461.6 2159.23 2461.6 2159.23C2461.6 2159.23 2508.28 2171.23 2566.95 2167.23C2625.63 2163.23 2668.59 2159.2 2668.59 2159.2C2668.59 2159.2 2606.96 2121.89 2604.29 2096.56C2601.63 2071.21 2590.05 1970.72 2605.16 1899.59C2616.97 1844.05 2568.29 1788.51 2568.29 1788.51L2486.95 1784.51L2299.32 1770.68" fill="#75A1DE"/>
<path d="M2570.32 2114.39C2567.31 2114.39 2561.2 2113.67 2550.93 2112.08C2499.36 2104.08 2444.24 2043.63 2420.24 2004.51C2396.24 1965.39 2372.93 1945.35 2371.35 1939.6C2369.43 1932.65 2370.73 1930.03 2374.88 1930.03C2386.11 1930.03 2418.11 1949.28 2462.92 1953.83C2480.75 1955.64 2499.17 1956.09 2515.52 1956.09C2523.87 1956.09 2531.67 1955.97 2538.57 1955.85C2545.48 1955.73 2551.48 1955.61 2556.21 1955.61C2569.41 1955.61 2572.87 1956.53 2558.93 1960.93C2525.15 1971.6 2432.68 1955.6 2449.57 1989.39C2469.45 2029.15 2492.93 2067.63 2526.93 2090.75C2544.73 2102.85 2582.49 2114.39 2570.32 2114.39" fill="#6E99D3"/>
<path d="M2507.17 1730.89C2507.72 1704.28 2514.21 1658.85 2521.81 1641.12C2528.04 1626.6 2502.29 1608.36 2487.2 1599.17L2474.44 1598.63C2472.49 1602.87 2470.67 1607.09 2468.96 1611.27C2455.48 1699.77 2495.83 1736.35 2515.07 1743.71C2523.39 1746.88 2532.69 1747.24 2540.65 1746.52C2528.76 1742.29 2517.19 1737.49 2507.17 1730.89" fill="#E38540"/>
<path d="M2482.76 1770.24C2478.13 1770.24 2473.32 1769.68 2468.56 1768.52C2457.43 1765.81 2430.89 1755.51 2424.72 1718.47C2424.57 1717.67 2425.12 1716.91 2425.92 1716.77C2426.72 1716.64 2427.48 1717.17 2427.61 1717.97C2433.51 1753.28 2458.69 1763.08 2469.25 1765.67C2485.67 1769.67 2503.07 1765.96 2509.75 1757.05C2515.11 1749.91 2511.89 1734.69 2511.85 1734.53C2511.68 1733.75 2512.19 1732.96 2512.99 1732.79C2513.77 1732.61 2514.56 1733.12 2514.73 1733.91C2514.88 1734.59 2518.27 1750.6 2512.11 1758.81C2506.64 1766.11 2495.37 1770.24 2482.76 1770.24Z" fill="#F5CE5C"/>
<path d="M2608.24 1628.12C2599.2 1675.89 2578.31 1714.43 2542.95 1707.16C2507.6 1699.89 2470.43 1649.44 2480.21 1601.83C2489.99 1554.2 2526.59 1521.48 2561.95 1528.75C2597.29 1536.01 2620.29 1564.48 2608.24 1628.12Z" fill="#F09959"/>
<path d="M2734.08 1864.03C2734.08 1864.03 2668.73 2039.61 2665.63 2057.84C2662.51 2076.07 2668.73 2087.63 2670.51 2087.63C2672.29 2087.63 2727.85 1992.51 2727.85 1992.51L2734.08 1864.03" fill="#F09959"/>
<path d="M2736.75 1856.32C2742.08 1838.55 2733.79 1816.01 2733.79 1816.01L2757.49 1818.99L2736.75 1856.32Z" fill="#F09959"/>
<path d="M2762.8 1826H2696.64C2692.63 1826 2689.75 1822.12 2690.89 1818.28L2732.65 1678.25C2733.41 1675.72 2735.75 1673.97 2738.4 1673.97H2804.56C2808.57 1673.97 2811.45 1677.84 2810.31 1681.69L2768.55 1821.71C2767.79 1824.25 2765.45 1826 2762.8 1826" fill="#4381DB"/>
<path d="M2771.09 1826H2704.95C2700.93 1826 2698.04 1822.12 2699.19 1818.28L2740.95 1678.25C2741.71 1675.72 2744.05 1673.97 2746.71 1673.97H2812.85C2816.87 1673.97 2819.76 1677.84 2818.61 1681.69L2776.85 1821.71C2776.09 1824.25 2773.75 1826 2771.09 1826" fill="#2E5B9A"/>
<path d="M2723.2 1724.51C2716.15 1749.92 2711.4 1770.79 2712.6 1771.12C2713.8 1771.45 2720.48 1751.12 2727.53 1725.71C2734.59 1700.29 2739.33 1679.43 2738.13 1679.09C2736.95 1678.76 2730.25 1699.09 2723.2 1724.51Z" fill="#9CBEED"/>
<path d="M2768.16 1867.59C2770.12 1844.49 2790.12 1822.85 2797.73 1815.95C2800.04 1813.84 2801.35 1810.87 2801.32 1807.75C2801.21 1796.24 2800.69 1769.07 2798.32 1765.89C2795.29 1761.85 2787.71 1709.83 2784.17 1711.84C2780.64 1713.87 2785.19 1759.32 2785.19 1759.32C2785.19 1759.32 2776.6 1755.28 2772.05 1753.27C2767.51 1751.24 2748.81 1771.95 2748.81 1771.95C2748.81 1771.95 2740.05 1794.09 2764.01 1784.61C2792.47 1773.35 2771.12 1804.76 2752.16 1824.91C2736.53 1841.52 2749.83 1845.19 2749.83 1845.19L2762.45 1844.68L2768.16 1867.59" fill="#F09959"/>
<path d="M2761 1885.75C2758.91 1885.75 2756.53 1885.43 2754.13 1884.68C2747.99 1882.77 2737.24 1876.57 2734.4 1856.68C2734.28 1855.88 2734.84 1855.13 2735.65 1855.01C2736.45 1854.91 2737.2 1855.45 2737.32 1856.27C2739.75 1873.28 2748 1879.48 2754.49 1881.69C2759.8 1883.51 2764.19 1882.67 2765.29 1882.05C2765.36 1881.55 2765.69 1881.09 2766.21 1880.89C2766.96 1880.59 2767.83 1880.95 2768.12 1881.71C2768.41 1882.45 2768.24 1883.28 2767.65 1883.92C2766.63 1885.04 2764.12 1885.75 2761 1885.75Z" fill="#F5CE5C"/>
<path d="M2758.52 1880.04C2756.55 1880.04 2754.51 1879.89 2752.55 1879.6C2741.12 1877.95 2733.45 1872.15 2731.53 1863.69C2731.35 1862.89 2731.85 1862.11 2732.64 1861.92C2733.44 1861.75 2734.23 1862.24 2734.4 1863.04C2736.24 1871.11 2743.57 1874.53 2749.4 1875.99C2757.57 1878.03 2765.25 1876.77 2766.16 1875.71C2766.56 1875 2767.44 1874.77 2768.16 1875.17C2768.87 1875.57 2769.11 1876.49 2768.71 1877.2C2767.61 1879.15 2763.32 1880.04 2758.52 1880.04" fill="#F5CE5C"/>
<path d="M2572.51 1598.08C2569.17 1598.08 2565.71 1599.95 2562.65 1603.44C2558.89 1607.72 2556.24 1613.84 2555.2 1620.65C2553.15 1634.07 2558.21 1646.44 2566.28 1647.68C2574.33 1648.92 2582.88 1638.61 2584.93 1625.2C2586.99 1611.79 2581.92 1599.41 2573.85 1598.17C2573.41 1598.11 2572.96 1598.08 2572.51 1598.08ZM2567.67 1652.99C2566.95 1652.99 2566.21 1652.92 2565.49 1652.81C2554.27 1651.09 2547.49 1636.63 2550.05 1619.87C2551.25 1612.08 2554.33 1605.03 2558.73 1600.01C2563.43 1594.67 2569.08 1592.19 2574.64 1593.04C2585.87 1594.76 2592.64 1609.23 2590.07 1625.99C2587.67 1641.67 2578.08 1652.99 2567.67 1652.99Z" fill="white"/>
<path d="M2610.56 1604.17C2606.23 1604.17 2600.35 1612.51 2598.39 1625.24C2596.37 1638.47 2599.81 1648.41 2604.17 1649.08C2608.56 1649.73 2614.8 1641.28 2616.83 1628.05C2617.79 1621.83 2617.57 1615.81 2616.25 1611.16C2615.09 1607.07 2613.19 1604.53 2611.05 1604.21C2610.89 1604.19 2610.72 1604.17 2610.56 1604.17V1604.17ZM2604.65 1653.05C2604.29 1653.05 2603.93 1653.03 2603.59 1652.97C2596.24 1651.84 2592.25 1639.4 2594.51 1624.64C2596.77 1609.88 2604.32 1599.17 2611.64 1600.32C2615.43 1600.91 2618.4 1604.37 2620.03 1610.08C2621.51 1615.27 2621.75 1621.87 2620.71 1628.65C2618.56 1642.69 2611.64 1653.05 2604.65 1653.05Z" fill="white"/>
<path d="M2555.37 1608.8C2555.15 1608.8 2554.91 1608.76 2554.67 1608.69L2467.53 1583.8C2466.16 1583.41 2465.36 1581.97 2465.75 1580.59C2466.15 1579.21 2467.59 1578.41 2468.96 1578.8L2556.09 1603.71C2557.47 1604.09 2558.27 1605.53 2557.88 1606.91C2557.55 1608.05 2556.51 1608.8 2555.37 1608.8Z" fill="white"/>
<path d="M2617.61 1554.63C2482.77 1634.05 2475.36 1580.71 2475.36 1580.71L2483.36 1504.84L2563.37 1509.29L2617.61 1554.63" fill="#303C60"/>
<path d="M2485.8 1598.33C2488.93 1611.76 2484.65 1624.24 2476.23 1626.21C2467.8 1628.17 2458.44 1618.89 2455.29 1605.47C2452.16 1592.04 2456.44 1579.56 2464.87 1577.59C2473.29 1575.63 2482.65 1584.92 2485.8 1598.33Z" fill="#F09959"/>
<path d="M2476.56 1615.97C2476.56 1618.91 2474.17 1621.28 2471.24 1621.28C2468.32 1621.28 2465.93 1618.91 2465.93 1615.97C2465.93 1613.04 2468.32 1610.67 2471.24 1610.67C2474.17 1610.67 2476.56 1613.04 2476.56 1615.97Z" fill="#F5CE5C"/>
<path d="M3516.8 2183.4H2167.96C2161.13 2183.4 2155.6 2177.87 2155.6 2171.04C2155.6 2164.21 2161.13 2158.68 2167.96 2158.68H3516.8C3523.63 2158.68 3529.16 2164.21 3529.16 2171.04C3529.16 2177.87 3523.63 2183.4 3516.8 2183.4" fill="#2E5B9A"/>
<path d="M2487.68 2156.29C2487.68 2156.29 2436.84 2156.95 2436.19 2161.44C2435.55 2165.95 2438.12 2167.88 2456.15 2171.11C2474.16 2174.32 2676.91 2175.61 2678.84 2174.32C2680.77 2173.04 2739.99 2158.87 2739.99 2158.87L2597.75 2156.29H2487.68" fill="#DBE5EB"/>
<path d="M2515.37 2122.45C2515.37 2122.45 2551.83 2106.45 2562.49 2113.56C2573.16 2120.67 2603.99 2153.28 2603.99 2153.28L2515.37 2122.45" fill="#F09959"/>
<path d="M2601.97 2156.17C2601.28 2157.04 2600.24 2157.4 2599.67 2156.97L2524.65 2101.13C2520.61 2098.12 2518.69 2093.52 2520.64 2091.09C2522.59 2088.67 2527.49 2089.53 2531.31 2092.81L2602.24 2153.75C2602.79 2154.23 2602.67 2155.31 2601.97 2156.17" fill="#2E5B9A"/>
<path d="M2405.12 2115.64C2405.12 2115.64 2465.59 2139.64 2472.69 2139.64C2479.81 2139.64 2519.52 2112.97 2532.85 2116.52C2546.19 2120.08 2611.39 2152.97 2609.61 2155.64C2607.84 2158.31 2589.16 2164.53 2534.04 2162.76C2478.92 2160.97 2389.12 2152.97 2389.12 2152.97L2405.12 2115.64Z" fill="#F09959"/>
<path d="M3161.67 2159.71H2915.25C2911.61 2159.71 2908.63 2156.72 2908.63 2153.08V2114.2C2908.63 2110.56 2911.61 2107.57 2915.25 2107.57H3161.67C3170.81 2107.57 3178.31 2115.05 3178.31 2124.2V2143.07C3178.31 2152.21 3170.81 2159.71 3161.67 2159.71Z" fill="#F37168"/>
<path d="M3142.61 2116.39H2908.65C2907.01 2119.11 2906.05 2122.28 2906.05 2125.67V2141.6C2906.05 2144.99 2907.01 2148.16 2908.65 2150.88H3142.61C3150.92 2150.88 3157.72 2144.08 3157.72 2135.77V2131.49C3157.72 2123.19 3150.92 2116.39 3142.61 2116.39" fill="#F2E5DE"/>
<path d="M3153.41 2107.57H2966.03C2963.57 2107.57 2961.56 2105.56 2961.56 2103.09V2080.51C2961.56 2078.04 2963.57 2076.03 2966.03 2076.03H3153.41C3159.59 2076.03 3164.64 2081.08 3164.64 2087.27V2096.33C3164.64 2102.52 3159.59 2107.57 3153.41 2107.57" fill="#7BCEE8"/>
<path d="M3137.76 2081.37H2961.59C2960.35 2083.01 2959.63 2084.93 2959.63 2086.99V2096.61C2959.63 2098.67 2960.35 2100.59 2961.59 2102.23H3137.76C3144.03 2102.23 3149.13 2098.12 3149.13 2093.09V2090.51C3149.13 2085.48 3144.03 2081.37 3137.76 2081.37" fill="#F2E5DE"/>
<path d="M3185.47 1438.32H2985.61C2979.24 1438.32 2975.93 1433.11 2978.24 1426.73L3008.47 1343.69C3010.79 1337.32 3017.89 1332.11 3024.27 1332.11H3224.12C3230.49 1332.11 3233.81 1337.32 3231.49 1343.69L3201.27 1426.73C3198.95 1433.11 3191.84 1438.32 3185.47 1438.32Z" fill="#9EC8FF"/>
<path d="M3178.69 1429.63H2998.72C2993.2 1429.63 2990.32 1425.11 2992.33 1419.59L3017.36 1350.84C3019.37 1345.32 3025.52 1340.8 3031.04 1340.8H3211.01C3216.53 1340.8 3219.41 1345.32 3217.4 1350.84L3192.37 1419.59C3190.37 1425.11 3184.21 1429.63 3178.69 1429.63Z" fill="white"/>
<path d="M3064.93 1433.49C3048.36 1477.25 3022.84 1490.77 3022.84 1490.77C3022.84 1490.77 3040.99 1465.67 3038.36 1453.44C3035.73 1441.21 3026.01 1436.05 3026.01 1436.05L3064.93 1433.49" fill="#9EC8FF"/>
<path d="M3193.15 1365.27H3077.13C3075.23 1365.27 3074.24 1363.71 3074.93 1361.8L3074.99 1361.64C3075.68 1359.73 3077.8 1358.17 3079.71 1358.17H3195.72C3197.63 1358.17 3198.61 1359.73 3197.92 1361.64L3197.87 1361.8C3197.17 1363.71 3195.05 1365.27 3193.15 1365.27Z" fill="#9EC8FF"/>
<path d="M3187.76 1380.07H3071.75C3069.84 1380.07 3068.85 1378.51 3069.55 1376.6L3069.6 1376.44C3070.29 1374.55 3072.41 1372.99 3074.32 1372.99H3190.33C3192.24 1372.99 3193.23 1374.55 3192.53 1376.44L3192.48 1376.6C3191.79 1378.51 3189.67 1380.07 3187.76 1380.07Z" fill="#9EC8FF"/>
<path d="M3181.67 1396.8H3065.65C3063.75 1396.8 3062.76 1395.24 3063.45 1393.33L3063.51 1393.17C3064.2 1391.28 3066.33 1389.72 3068.23 1389.72H3184.25C3186.15 1389.72 3187.13 1391.28 3186.44 1393.17L3186.39 1393.33C3185.69 1395.24 3183.57 1396.8 3181.67 1396.8" fill="#9EC8FF"/>
<path d="M3059.04 1377.17C3054.44 1389.79 3042.37 1400.01 3032.05 1400.01C3021.75 1400.01 3017.12 1389.79 3021.71 1377.17C3026.31 1364.55 3038.39 1354.32 3048.69 1354.32C3059 1354.32 3063.63 1364.55 3059.04 1377.17" fill="#9EC8FF"/>
<path d="M3071.87 1654.25H3061.97C3059.88 1654.25 3058.8 1652.56 3059.56 1650.47L3062.53 1642.31C3063.29 1640.21 3065.6 1638.52 3067.69 1638.52H3077.6C3079.69 1638.52 3080.77 1640.21 3080 1642.31L3077.04 1650.47C3076.28 1652.56 3073.96 1654.25 3071.87 1654.25Z" fill="#9EC8FF"/>
<path d="M3103.65 1654.25H3093.75C3091.65 1654.25 3090.57 1652.56 3091.33 1650.47L3094.31 1642.31C3095.07 1640.21 3097.39 1638.52 3099.47 1638.52H3109.37C3111.47 1638.52 3112.55 1640.21 3111.79 1642.31L3108.81 1650.47C3108.05 1652.56 3105.75 1654.25 3103.65 1654.25Z" fill="#9EC8FF"/>
<path d="M3135.43 1654.25H3125.53C3123.44 1654.25 3122.36 1652.56 3123.12 1650.47L3126.09 1642.31C3126.85 1640.21 3129.16 1638.52 3131.25 1638.52H3141.16C3143.25 1638.52 3144.33 1640.21 3143.56 1642.31L3140.6 1650.47C3139.84 1652.56 3137.52 1654.25 3135.43 1654.25Z" fill="#9EC8FF"/>
<path d="M2945.95 1591.51H2746.09C2739.72 1591.51 2736.41 1586.29 2738.73 1579.92L2768.95 1496.88C2771.27 1490.51 2778.39 1485.29 2784.75 1485.29H2984.6C2990.97 1485.29 2994.29 1490.51 2991.97 1496.88L2961.75 1579.92C2959.44 1586.29 2952.32 1591.51 2945.95 1591.51Z" fill="#9EC8FF"/>
<path d="M2939.17 1582.81H2759.2C2753.68 1582.81 2750.81 1578.29 2752.81 1572.77L2777.84 1504.03C2779.85 1498.51 2786.01 1493.99 2791.53 1493.99H2971.51C2977.03 1493.99 2979.89 1498.51 2977.89 1504.03L2952.87 1572.77C2950.85 1578.29 2944.69 1582.81 2939.17 1582.81Z" fill="white"/>
<path d="M2756.23 1586.67C2740.93 1630.44 2756.61 1643.96 2756.61 1643.96C2756.61 1643.96 2756.73 1618.85 2768.27 1606.63C2779.8 1594.4 2793.27 1589.25 2793.27 1589.25L2756.23 1586.67" fill="#9EC8FF"/>
<path d="M2890.33 1524.24H2792.43C2790.68 1524.24 2789.77 1522.8 2790.4 1521.05L2790.67 1520.35C2791.31 1518.6 2793.25 1517.16 2795.01 1517.16H2892.91C2894.65 1517.16 2895.57 1518.6 2894.93 1520.35L2894.68 1521.05C2894.04 1522.8 2892.08 1524.24 2890.33 1524.24Z" fill="#9EC8FF"/>
<path d="M2884.95 1539.04H2787.04C2785.29 1539.04 2784.37 1537.61 2785.01 1535.85L2785.28 1535.15C2785.91 1533.4 2787.87 1531.96 2789.63 1531.96H2887.52C2889.27 1531.96 2890.19 1533.4 2889.55 1535.15L2889.29 1535.85C2888.65 1537.61 2886.69 1539.04 2884.95 1539.04Z" fill="#9EC8FF"/>
<path d="M2878.85 1555.77H2780.95C2779.2 1555.77 2778.29 1554.35 2778.92 1552.59L2779.19 1551.88C2779.83 1550.13 2781.77 1548.69 2783.53 1548.69H2881.43C2883.17 1548.69 2884.09 1550.13 2883.45 1551.88L2883.2 1552.59C2882.56 1554.35 2880.6 1555.77 2878.85 1555.77Z" fill="#9EC8FF"/>
<path d="M3128 1685.47H2935.11C2931.65 1685.47 2929.85 1684.04 2931.11 1682.28L2931.63 1681.57C2932.88 1679.83 2936.73 1678.39 2940.19 1678.39H3133.08C3136.53 1678.39 3138.32 1679.83 3137.07 1681.57L3136.56 1682.28C3135.31 1684.04 3131.45 1685.47 3128 1685.47" fill="#9EC8FF"/>
<path d="M3117.39 1709.93H2924.49C2921.04 1709.93 2919.24 1708.49 2920.49 1706.75L2921 1706.04C2922.27 1704.28 2926.12 1702.85 2929.57 1702.85H3122.45C3125.91 1702.85 3127.71 1704.28 3126.45 1706.04L3125.95 1706.75C3124.69 1708.49 3120.84 1709.93 3117.39 1709.93" fill="#9EC8FF"/>
<path d="M2924.33 1561.57H2910.17C2903.81 1561.57 2900.49 1556.36 2902.81 1549.99L2913.35 1521.03C2915.67 1514.65 2922.79 1509.44 2929.16 1509.44H2943.32C2949.69 1509.44 2953 1514.65 2950.68 1521.03L2940.15 1549.99C2937.83 1556.36 2930.71 1561.57 2924.33 1561.57Z" fill="#9EC8FF"/>
<path d="M3418.33 2121.32C3444.04 1980.28 3438.41 1929.83 3369.56 1814.69C3300.71 1699.56 3294.13 1485.31 3268.19 1548.15C3242.23 1610.99 3245.72 1768.8 3327.07 1845.37C3408.4 1921.96 3419.35 1956.25 3424.19 1987.41C3429.01 2018.59 3412.56 2114.39 3412.56 2114.39L3418.33 2121.32" fill="#9CD499"/>
<path d="M3431.21 2030.43C3431.25 2029.88 3431.29 2029.35 3431.33 2028.81C3429.83 2017.24 3421.65 1957.72 3410.35 1934.24C3397.8 1908.17 3342.76 1862.8 3327.32 1805.84C3311.87 1748.87 3287.39 1704.72 3271.32 1668.73C3250.11 1621.23 3261.71 1558.07 3279.24 1537.56C3278.81 1537.27 3278.39 1537.08 3277.96 1536.96L3272.13 1540.48C3270.85 1542.31 3269.55 1544.84 3268.19 1548.15C3242.23 1610.99 3245.72 1768.8 3327.05 1845.37C3408.4 1921.96 3419.35 1956.25 3424.19 1987.41C3425.48 1995.83 3425.24 2008.95 3424.19 2023.61L3431.21 2030.43" fill="#74B570"/>
<path d="M3383.2 2096.44C3402.32 1930.68 3395.95 1873.31 3358.97 1740.69C3322 1608.09 3562.99 1305.91 3555.33 1358.19C3547.68 1410.45 3522.17 1540.52 3455.88 1622.12C3389.57 1703.72 3384.48 1770.03 3397.23 1840.16C3409.97 1910.28 3394.68 2073.49 3394.68 2073.49L3387.03 2102.81L3383.2 2096.44" fill="#9CD499"/>
<path d="M3392 2027.56H3391.95C3391.05 2027.52 3390.37 2026.79 3390.4 2025.89C3390.43 2025.39 3392.32 1974.29 3391.37 1932.35C3390.41 1890.36 3379.04 1818.43 3372.12 1793.72C3365.81 1771.21 3357.89 1695.75 3396.36 1617.83C3415.52 1579.01 3430.81 1554.47 3451.99 1520.51C3472.91 1486.93 3498.95 1445.16 3540.25 1371.56C3540.68 1370.79 3541.65 1370.51 3542.43 1370.95C3543.2 1371.37 3543.48 1372.35 3543.04 1373.12C3501.69 1446.79 3475.64 1488.6 3454.69 1522.2C3433.57 1556.08 3418.32 1580.57 3399.23 1619.24C3361.2 1696.27 3368.99 1770.68 3375.2 1792.85C3382.16 1817.72 3393.61 1890.07 3394.56 1932.28C3395.52 1974.32 3393.61 2025.51 3393.6 2026.03C3393.57 2026.88 3392.85 2027.56 3392 2027.56" fill="#74B570"/>
<path d="M3389.57 2155.99C3401.05 2045.05 3402.97 2099.76 3355.31 1949.04C3300.77 1776.53 3495.4 1623.39 3527.28 1685.87C3559.16 1748.35 3596.13 1944.71 3582.11 1938.33C3568.08 1931.96 3475 1749.63 3472.45 1757.28C3469.91 1764.92 3346.23 1828.68 3351.32 1893.71C3356.43 1958.73 3403.6 2062.01 3403.6 2062.01L3402.32 2157.27L3389.57 2155.99" fill="#9CD499"/>
<path d="M3391.33 2151.65L3400.75 2152.6L3402 2062.35C3399.05 2055.84 3354.65 1956.57 3349.73 1893.83C3345.72 1842.65 3418.84 1793.05 3453.99 1769.21C3462.33 1763.55 3470.23 1758.2 3470.95 1756.72C3471.19 1756.03 3471.8 1755.52 3472.55 1755.45C3475.64 1755.16 3481.75 1765.23 3516.29 1827.27C3541.09 1871.79 3574.97 1932.64 3582.6 1936.79C3583.19 1935.84 3584.92 1930.61 3581.55 1903.68C3579.11 1884.21 3574.64 1858.6 3568.96 1831.56C3555.43 1767.16 3539.31 1712.97 3525.85 1686.6C3518.45 1672.08 3500.75 1669.27 3477.29 1678.88C3413.73 1704.93 3316.35 1820.52 3356.84 1948.56C3369.61 1988.97 3378.65 2013.91 3385.25 2032.12C3400.12 2073.17 3400.12 2073.17 3394.69 2121.01C3393.71 2129.75 3392.59 2139.59 3391.33 2151.65V2151.65ZM3402.32 2155.97L3402.16 2155.96L3389.41 2154.68C3388.99 2154.64 3388.6 2154.43 3388.33 2154.11C3388.07 2153.77 3387.93 2153.35 3387.99 2152.93C3389.31 2140.11 3390.53 2129.32 3391.52 2120.65C3396.85 2073.55 3396.85 2073.55 3382.24 2033.2C3375.63 2014.97 3366.59 1990 3353.79 1949.53C3344.21 1919.25 3341.75 1887.88 3346.44 1856.28C3350.57 1828.43 3360.13 1800.96 3374.85 1774.65C3400.11 1729.53 3439.84 1690.77 3476.08 1675.92C3501.27 1665.6 3520.45 1668.96 3528.71 1685.15C3542.24 1711.67 3558.41 1765.96 3571.97 1830.4C3579.81 1867.59 3591.32 1932.35 3584.77 1939.17C3583.89 1940.11 3582.65 1940.33 3581.44 1939.79C3573.79 1936.31 3548.45 1891.6 3513.51 1828.83C3495.97 1797.35 3477.89 1764.87 3473.01 1759.27C3471.04 1761.45 3466.08 1764.88 3455.79 1771.87C3421.13 1795.36 3349.05 1844.25 3352.92 1893.59C3357.93 1957.57 3404.59 2060.32 3405.05 2061.35C3405.16 2061.56 3405.2 2061.8 3405.2 2062.04L3403.92 2154.39C3403.92 2154.84 3403.72 2155.27 3403.39 2155.56C3403.09 2155.83 3402.72 2155.97 3402.32 2155.97" fill="#74B570"/>
<path d="M3429.65 2160.59H3371.79C3367.81 2160.59 3364.25 2158.32 3363.88 2155.51L3344.44 2009.35C3343.53 2002.6 3348 1996.92 3354.37 1996.92H3447.07C3453.44 1996.92 3457.89 2002.6 3457 2009.35L3437.56 2155.51C3437.19 2158.32 3433.63 2160.59 3429.65 2160.59" fill="#7BCEE8"/>
<path d="M3422.79 2155.55H3414.51C3410.45 2155.55 3407.19 2153.2 3407.25 2150.28L3410.19 2024.03C3410.33 2017.73 3415.48 2012.45 3421.63 2012.45H3434.19C3440.33 2012.45 3444.8 2017.73 3444.13 2024.03L3430.72 2150.28C3430.4 2153.2 3426.84 2155.55 3422.79 2155.55Z" fill="#A2DFF2"/>
<path d="M3361.11 1950.97L3362.13 1949.2C3358.39 1935.67 3355.25 1922.19 3353.25 1909.59C3355.32 1933.41 3361.11 1950.97 3361.11 1950.97" fill="#74B570"/>
<path d="M3361.11 1844.13C3357.35 1853.53 3355.05 1863.33 3353.8 1873C3370.88 1816.93 3465.99 1766.32 3472.16 1757.77L3473.27 1755.63C3437.53 1745.65 3380.41 1795.85 3361.11 1844.13Z" fill="#74B570"/>
<path d="M3582.2 1934.88C3581.48 1934.88 3580.83 1934.39 3580.64 1933.65L3563.36 1863.35C3549.87 1808.25 3533.07 1739.68 3514.21 1709.16C3511.11 1704.13 3497.53 1697.32 3478.31 1698.68C3452.32 1700.52 3402.21 1718.48 3358.71 1818.05C3358.36 1818.87 3357.41 1819.24 3356.6 1818.89C3355.8 1818.53 3355.43 1817.59 3355.77 1816.77C3399.96 1715.65 3451.37 1697.39 3478.08 1695.49C3498.85 1694.03 3513.32 1701.61 3516.95 1707.48C3536.05 1738.44 3552.21 1804.39 3566.47 1862.59L3583.75 1932.89C3583.96 1933.75 3583.44 1934.61 3582.59 1934.83C3582.45 1934.87 3582.32 1934.88 3582.2 1934.88" fill="#74B570"/>
<path d="M3531.51 1843.16L3531.32 1843.15C3530.45 1843.04 3529.81 1842.25 3529.92 1841.37C3529.99 1840.8 3536.47 1783 3521.27 1722.23C3521.05 1721.37 3521.57 1720.51 3522.44 1720.28C3523.29 1720.08 3524.16 1720.6 3524.37 1721.45C3539.72 1782.81 3533.17 1841.16 3533.11 1841.75C3533 1842.56 3532.32 1843.16 3531.51 1843.16" fill="#74B570"/>
<path d="M3513.65 1807.44L3513.47 1807.43C3512.59 1807.32 3511.96 1806.52 3512.07 1805.65C3512.12 1805.12 3518.27 1752.2 3513.99 1708.48C3513.91 1707.6 3514.55 1706.81 3515.43 1706.73C3516.29 1706.63 3517.08 1707.28 3517.17 1708.16C3521.48 1752.24 3515.31 1805.49 3515.24 1806.03C3515.15 1806.84 3514.45 1807.44 3513.65 1807.44" fill="#74B570"/>
<path d="M3452.83 1523.59C3452.23 1523.59 3451.65 1523.25 3451.39 1522.68C3451 1521.88 3451.33 1520.93 3452.13 1520.55C3452.59 1520.32 3498.33 1497.95 3524.79 1448.81C3525.21 1448.04 3526.19 1447.75 3526.96 1448.17C3527.73 1448.59 3528.03 1449.56 3527.61 1450.33C3500.64 1500.41 3453.99 1523.2 3453.52 1523.43C3453.29 1523.53 3453.05 1523.59 3452.83 1523.59" fill="#74B570"/>
<path d="M3419.03 1581.52C3418.29 1581.52 3417.63 1581 3417.47 1580.24C3417.29 1579.37 3417.84 1578.53 3418.71 1578.35C3419.08 1578.27 3456.56 1570.24 3501.05 1534.27C3501.75 1533.71 3502.75 1533.81 3503.31 1534.49C3503.87 1535.19 3503.76 1536.19 3503.07 1536.75C3457.91 1573.25 3419.73 1581.4 3419.36 1581.48L3419.03 1581.52" fill="#74B570"/>
<path d="M3391.11 1637.55C3390.45 1637.55 3390.07 1637.52 3389.95 1637.51C3389.07 1637.44 3388.41 1636.68 3388.48 1635.8C3388.53 1634.91 3389.32 1634.25 3390.19 1634.32C3390.44 1634.33 3416.27 1635.75 3457.65 1604.71C3458.37 1604.17 3459.37 1604.32 3459.89 1605.03C3460.43 1605.73 3460.28 1606.73 3459.57 1607.27C3421.57 1635.77 3396.71 1637.55 3391.11 1637.55" fill="#74B570"/>
<path d="M236.3 2142.79C236.3 2142.79 -132.292 1478.96 143.616 1324.07C249.468 1264.64 349.071 1283.8 450.151 1302.96C559.272 1323.64 670.116 1344.32 792.41 1266.13C1096.33 1071.83 1326.73 1201.91 1491.4 1443.79C1614.99 1625.29 1680.44 1742.71 1742.43 1884.04C1838.97 2104.16 1634.29 2154.37 1634.29 2154.37L236.3 2142.79" fill="#E7F3FE"/>
<path d="M1254.73 2147.12L1086.69 2147.41C1084.29 2147.43 1082.29 2144.99 1082.15 2142C1082.01 2139.01 1083.79 2136.41 1086.17 2136.2L1253.55 2121.16C1267.13 2119.95 1279.51 2125.2 1279.87 2132.96C1280.23 2140.72 1268.37 2147.09 1254.73 2147.12" fill="#75A1DE"/>
<path d="M1037.15 2123.32C1042.95 2121.88 1053.57 2090.17 1053.57 2090.17C1053.57 2090.17 932.218 2049.25 880.75 2022.59L809.047 2105.53C901.151 2128.47 1032.86 2124.4 1037.15 2123.32" fill="#F09959"/>
<path d="M1018.49 2077.63C1048.35 2085.35 1095.87 2066.04 1104.75 2067.97C1113.63 2069.89 1150.75 2089.21 1159.63 2098.87C1168.51 2108.52 1199.99 2138.45 1194.33 2140.37C1188.68 2142.31 1149.13 2113.35 1144.29 2112.39C1139.45 2111.41 1137.03 2118.17 1097.48 2125.89C1057.93 2133.61 1010.12 2113.67 1010.12 2113.67L1018.49 2077.63Z" fill="#F09959"/>
<path d="M1066 2107.55C1066 2107.55 1112.01 2095.96 1117.65 2097.89C1123.31 2099.83 1157.61 2107.55 1181.43 2134.59C1158.83 2127.83 1126.53 2125.89 1117.65 2125.89C1108.77 2125.89 1066 2107.55 1066 2107.55Z" fill="#E38540"/>
<path d="M1077 2088.24C1096.64 2113.35 1146.52 2121.07 1154.07 2129.76C1161.63 2138.45 1135.91 2134.76 1122.33 2133.61C1087.8 2130.72 1063.67 2144.72 1035.71 2136.04C1007.75 2127.35 1001.43 2106.59 1001.43 2106.59L1077 2088.24Z" fill="#F09959"/>
<path d="M708.803 1642.64C620.187 1686.19 579.639 1718.04 552.124 1836.79C524.611 1955.53 523.163 2068.49 537.643 2152.48C636.004 2155.33 917.92 2165.95 917.92 2165.95C917.92 2165.95 912.551 1993.51 883.745 1857.05C856.231 1726.73 817.132 1676.04 783.824 1652.88C750.518 1629.71 708.803 1642.64 708.803 1642.64" fill="#A2DFF2"/>
<path d="M730.244 2046.76C698.479 2014.91 707.075 1799.13 654.941 1702.11L557.917 1883.12L528.587 2033.73C528.339 2077.24 531.595 2117.39 537.643 2152.48C537.989 2154.47 539.813 2155.81 541.791 2155.64C621.888 2148.63 626.349 2113.81 882.197 2075.2C888.236 2074.29 751.86 2068.44 730.244 2046.76Z" fill="#96CFE0"/>
<path d="M700.368 1642.68C689.14 1668.88 711.954 1703.19 747.999 1730.21C784.042 1757.25 805.926 1742.44 803.995 1721.2C802.064 1699.96 800.134 1677.44 791.766 1663.92C783.398 1650.4 716.46 1638.81 716.46 1638.81C716.46 1638.81 702.299 1638.17 700.368 1642.68" fill="white"/>
<path d="M743.171 1511.37L708.803 1642.64C705.423 1651.43 706.351 1661.28 711.307 1669.28C725.301 1691.88 755.408 1735.32 776.961 1729.57C805.927 1721.85 786.616 1667.79 786.616 1667.79L825.235 1531.64L743.171 1511.37" fill="#F09959"/>
<path d="M795.827 1519.47L761.513 1505.59L751.207 1532.39C755.935 1646.48 770.469 1693.04 792.785 1706.03C793.985 1688.43 786.616 1667.79 786.616 1667.79L814.615 1566.4L795.827 1519.47" fill="#E38540"/>
<path d="M891.124 1570.91C884.433 1616.21 866.579 1655.04 834.213 1650.27C801.847 1645.48 746.279 1607.56 752.971 1562.25C759.663 1516.93 832.315 1462.68 864.68 1467.45C897.045 1472.24 897.817 1525.59 891.124 1570.91" fill="#F09959"/>
<path d="M644.806 1741.21C647.386 1730.92 606.167 1724.77 599.61 1733.11C534.766 1815.57 433.903 2038.36 456.548 2078.63C482.615 2124.96 763.446 2064.11 769.239 2062.65C775.03 2061.21 759.1 2017.76 759.1 2017.76C759.1 2017.76 601.73 2020.67 575.179 2002.8C657.723 1847.85 625.251 1819.19 644.806 1741.21" fill="#F09959"/>
<path d="M628.875 1694.87C560.76 1725.4 486.959 1923.68 486.959 1923.68C486.959 1923.68 504.336 1928.01 560.813 1946.84C584.289 1954.67 607.04 1961.93 607.04 1961.93C607.04 1961.93 661.105 1891.77 678.111 1836.79C700.017 1765.96 670.871 1676.04 628.875 1694.87" fill="#A2DFF2"/>
<path d="M494.263 1905.07C557.972 1913.28 596.042 1935.47 615.386 1950.61C618.294 1946.57 621.81 1941.59 625.699 1935.87C612.295 1923.31 583.142 1900.92 540.744 1894.99C523.53 1892.59 510.422 1891.03 500.471 1890.04C498.122 1895.61 496.042 1900.67 494.263 1905.07" fill="white"/>
<path d="M508.88 1870.53C507.788 1873.01 506.731 1875.43 505.708 1877.79C561.67 1875.55 615.364 1902.8 628.923 1919.45C630.515 1921.4 631.918 1923.12 633.17 1924.65C634.574 1922.51 636.002 1920.29 637.444 1918.03C628.263 1908.99 611.958 1894.47 595.455 1887.27C561.67 1872.52 513.231 1870.68 508.88 1870.53Z" fill="white"/>
<path d="M884.128 2074.57H812.684L802.064 1941.17H895.715L884.128 2074.57Z" fill="#75A1DE"/>
<path d="M750.412 2018.25C770.204 2017.76 802.547 1995.08 813.65 1988.8C824.752 1982.52 887.507 1969.01 890.404 1975.77C893.3 1982.52 837.785 1996.52 837.785 1996.52L879.302 1998.45C879.302 1998.45 891.37 2016.8 892.335 2028.87C893.3 2040.93 888.472 2058.32 888.472 2058.32L870.129 2041.91C870.129 2041.91 855.166 2050.11 836.338 2061.21C817.512 2072.31 783.72 2065.56 769.239 2062.65C754.756 2059.76 720.966 2049.15 720.966 2049.15L750.412 2018.25" fill="#F09959"/>
<path d="M491.667 2011.97C491.667 2011.97 523.688 1993.47 555.871 1997.97C574.313 2000.56 576.312 2003.56 575.179 2002.8C579.165 1995.32 582.877 1988.13 586.345 1981.23C569.579 1982 526.595 1986.53 491.667 2011.97Z" fill="#E38540"/>
<path d="M1502.43 1784.6V2113.35C1502.43 2124.28 1492.12 2133.13 1479.41 2133.13H1410.39C1398.61 2133.13 1389.07 2141.35 1389.07 2151.48H1488.4C1509.79 2151.48 1527.12 2136.57 1527.12 2118.17V1784.6H1502.43" fill="#6791C9"/>
<path d="M1451.95 2066.15L1440.99 2064.05C1433.75 2062.68 1429.15 2056.47 1430.75 2050.24L1516.64 1716.55C1518.25 1710.33 1525.48 1706.36 1532.71 1707.75L1543.67 1709.83C1550.89 1711.21 1555.51 1717.43 1553.91 1723.64L1468 2057.33C1466.4 2063.56 1459.17 2067.52 1451.95 2066.15Z" fill="#95BEF5"/>
<path d="M1454.93 2066.72L1453.65 2066.47C1448.07 2065.4 1444.51 2060.6 1445.73 2055.8L1532.96 1716.96C1534.2 1712.15 1539.79 1709.09 1545.37 1710.16L1546.65 1710.4C1552.24 1711.47 1555.8 1716.27 1554.56 1721.07L1467.35 2059.92C1466.11 2064.72 1460.52 2067.77 1454.93 2066.72Z" fill="#75A1DE"/>
<path d="M1683.6 2170.52H208.111C201.285 2170.52 195.751 2164.99 195.751 2158.16C195.751 2151.33 201.285 2145.8 208.111 2145.8H1683.6C1690.43 2145.8 1695.97 2151.33 1695.97 2158.16C1695.97 2164.99 1690.43 2170.52 1683.6 2170.52Z" fill="#2E5B9A"/>
<path d="M758.048 1454.76C691.192 1496.23 733.507 1541.08 715.735 1618.09C726.656 1621.84 738.584 1600.32 746.2 1583.4C753.818 1566.47 760.587 1541.93 763.126 1542.77C765.666 1543.63 769.896 1581.71 769.896 1581.71L780.051 1586.79C780.051 1586.79 794.439 1561.4 793.594 1555.47C792.746 1549.55 780.899 1520.77 795.284 1507.23C804.53 1498.53 842.676 1517.39 842.676 1517.39L805.44 1464.07L758.048 1454.76" fill="#F09959"/>
<path d="M718.292 1618.52C717.436 1618.52 716.582 1618.39 715.735 1618.09C719.467 1601.92 720.55 1587.17 720.55 1573.57C720.55 1554.79 718.486 1538.2 718.486 1523.11C718.486 1497.08 724.62 1475.49 758.048 1454.76L805.44 1464.07L842.676 1517.39C842.676 1517.39 817.488 1504.93 803.088 1504.93C799.767 1504.93 797.018 1505.6 795.284 1507.23C789.918 1512.28 788.202 1519.45 788.204 1526.77C788.207 1539.07 793.062 1551.76 793.594 1555.47C793.618 1555.64 793.63 1555.84 793.628 1556.04C793.608 1562.85 780.051 1586.79 780.051 1586.79L769.896 1581.71C769.896 1581.71 765.666 1543.63 763.126 1542.77C763.083 1542.76 763.039 1542.76 762.994 1542.76C761.126 1542.76 757.232 1554.81 752.456 1567.76C750.494 1573.08 748.382 1578.55 746.2 1583.4C739.175 1599.01 728.482 1618.52 718.292 1618.52" fill="#8F7A7A"/>
<path d="M904.455 1499.61C901.069 1540.24 838.102 1527.52 808.826 1491.16C780.898 1456.45 757.923 1480.37 730.121 1492C683.576 1511.47 736.045 1398.91 829.983 1416.68C900.461 1430.01 906.708 1472.57 904.455 1499.61" fill="#2E5B9A"/>
<path d="M764.498 1542.76C767.386 1557.91 761.724 1571.71 751.854 1573.6C741.982 1575.48 731.639 1564.72 728.751 1549.57C725.863 1534.41 731.524 1520.61 741.395 1518.73C751.266 1516.84 761.61 1527.6 764.498 1542.76Z" fill="#F09959"/>
<path d="M1476.51 1632.59H1149.72C1145.99 1632.59 1142.96 1629.56 1142.96 1625.83V1436.61C1142.96 1432.88 1145.99 1429.84 1149.72 1429.84H1476.51C1480.24 1429.84 1483.27 1432.88 1483.27 1436.61V1625.83C1483.27 1629.56 1480.24 1632.59 1476.51 1632.59Z" fill="#9EC8FF"/>
<path d="M1466.95 1626.37H1159.28C1156.03 1626.37 1153.39 1623.73 1153.39 1620.48V1468.35C1153.39 1465.09 1156.03 1462.45 1159.28 1462.45H1466.95C1470.2 1462.45 1472.84 1465.09 1472.84 1468.35V1620.48C1472.84 1623.73 1470.2 1626.37 1466.95 1626.37Z" fill="white"/>
<path d="M1166.96 1452.71H1159.77C1158.25 1452.71 1157.01 1451.48 1157.01 1449.96V1444.04C1157.01 1442.52 1158.25 1441.29 1159.77 1441.29H1166.96C1168.47 1441.29 1169.71 1442.52 1169.71 1444.04V1449.96C1169.71 1451.48 1168.47 1452.71 1166.96 1452.71Z" fill="white"/>
<path d="M1190.01 1452.71H1182.83C1181.32 1452.71 1180.08 1451.48 1180.08 1449.96V1444.04C1180.08 1442.52 1181.32 1441.29 1182.83 1441.29H1190.01C1191.53 1441.29 1192.77 1442.52 1192.77 1444.04V1449.96C1192.77 1451.48 1191.53 1452.71 1190.01 1452.71Z" fill="white"/>
<path d="M1213.08 1452.71H1205.89C1204.37 1452.71 1203.15 1451.48 1203.15 1449.96V1444.04C1203.15 1442.52 1204.37 1441.29 1205.89 1441.29H1213.08C1214.6 1441.29 1215.83 1442.52 1215.83 1444.04V1449.96C1215.83 1451.48 1214.6 1452.71 1213.08 1452.71Z" fill="white"/>
<path d="M1165.29 1615.64H1460.95V1473.17H1165.29V1615.64ZM1462.01 1616.71H1164.23V1472.11H1462.01V1616.71Z" fill="#9EC8FF"/>
<path d="M1461.48 1588H1164.76V1586.93H1461.48V1588Z" fill="#9EC8FF"/>
<path d="M1461.48 1559.29H1164.76V1558.23H1461.48V1559.29Z" fill="#9EC8FF"/>
<path d="M1461.48 1530.59H1164.76V1529.52H1461.48V1530.59Z" fill="#9EC8FF"/>
<path d="M1461.48 1501.88H1164.76V1500.81H1461.48V1501.88Z" fill="#9EC8FF"/>
<path d="M1419.61 1616.17H1418.56V1472.64H1419.61V1616.17Z" fill="#9EC8FF"/>
<path d="M1377.23 1616.17H1376.16V1472.64H1377.23V1616.17Z" fill="#9EC8FF"/>
<path d="M1334.84 1616.17H1333.77V1472.64H1334.84V1616.17Z" fill="#9EC8FF"/>
<path d="M1292.45 1616.17H1291.39V1472.64H1292.45V1616.17Z" fill="#9EC8FF"/>
<path d="M1250.07 1616.17H1249V1472.64H1250.07V1616.17Z" fill="#9EC8FF"/>
<path d="M1207.68 1616.17H1206.61V1472.64H1207.68V1616.17Z" fill="#9EC8FF"/>
<path d="M1450.37 1490.77H1440.4C1436.59 1490.77 1433.48 1487.65 1433.48 1483.85C1433.48 1480.04 1436.59 1476.93 1440.4 1476.93H1450.37C1454.17 1476.93 1457.29 1480.04 1457.29 1483.85C1457.29 1487.65 1454.17 1490.77 1450.37 1490.77Z" fill="#F39892"/>
<path d="M1454 1548.69H1436.77C1434.96 1548.69 1433.48 1547.21 1433.48 1545.4V1538.16C1433.48 1536.35 1434.96 1534.87 1436.77 1534.87H1454C1455.81 1534.87 1457.29 1536.35 1457.29 1538.16V1545.4C1457.29 1547.21 1455.81 1548.69 1454 1548.69Z" fill="#F39892"/>
<path d="M1239.55 1525.85H1216.13C1213.53 1525.85 1211.43 1523.73 1211.43 1521.15V1510.12C1211.43 1507.53 1213.53 1505.41 1216.13 1505.41H1239.55C1242.13 1505.41 1244.25 1507.53 1244.25 1510.12V1521.15C1244.25 1523.73 1242.13 1525.85 1239.55 1525.85Z" fill="#9EC8FF"/>
<path d="M1236.24 1522.97H1219.43C1217.56 1522.97 1216.04 1521.45 1216.04 1519.59V1511.67C1216.04 1509.81 1217.56 1508.29 1219.43 1508.29H1236.24C1238.11 1508.29 1239.63 1509.81 1239.63 1511.67V1519.59C1239.63 1521.45 1238.11 1522.97 1236.24 1522.97Z" fill="white"/>
<path d="M1409.47 1611.77H1386.05C1383.47 1611.77 1381.35 1609.65 1381.35 1607.07V1596.04C1381.35 1593.45 1383.47 1591.33 1386.05 1591.33H1409.47C1412.05 1591.33 1414.17 1593.45 1414.17 1596.04V1607.07C1414.17 1609.65 1412.05 1611.77 1409.47 1611.77Z" fill="#9EC8FF"/>
<path d="M1406.16 1608.89H1389.35C1387.49 1608.89 1385.97 1607.37 1385.97 1605.52V1597.6C1385.97 1595.73 1387.49 1594.21 1389.35 1594.21H1406.16C1408.03 1594.21 1409.55 1595.73 1409.55 1597.6V1605.52C1409.55 1607.37 1408.03 1608.89 1406.16 1608.89Z" fill="white"/>
<path d="M1327.28 1511.37H1308.93C1307.69 1511.37 1306.68 1510.35 1306.68 1509.12C1306.68 1507.88 1307.69 1506.87 1308.93 1506.87H1327.28C1328.52 1506.87 1329.53 1507.88 1329.53 1509.12C1329.53 1510.35 1328.52 1511.37 1327.28 1511.37Z" fill="#9EC8FF"/>
<path d="M1327.28 1518.44H1308.93C1307.69 1518.44 1306.68 1517.44 1306.68 1516.2C1306.68 1514.96 1307.69 1513.95 1308.93 1513.95H1327.28C1328.52 1513.95 1329.53 1514.96 1329.53 1516.2C1329.53 1517.44 1328.52 1518.44 1327.28 1518.44Z" fill="#9EC8FF"/>
<path d="M1286.73 1596.81H1268.39C1267.15 1596.81 1266.13 1595.8 1266.13 1594.56C1266.13 1593.32 1267.15 1592.31 1268.39 1592.31H1286.73C1287.97 1592.31 1288.99 1593.32 1288.99 1594.56C1288.99 1595.8 1287.97 1596.81 1286.73 1596.81Z" fill="#9EC8FF"/>
<path d="M1286.73 1603.89H1268.39C1267.15 1603.89 1266.13 1602.88 1266.13 1601.64C1266.13 1600.4 1267.15 1599.39 1268.39 1599.39H1286.73C1287.97 1599.39 1288.99 1600.4 1288.99 1601.64C1288.99 1602.88 1287.97 1603.89 1286.73 1603.89Z" fill="#9EC8FF"/>
<path d="M1191.63 1543.23H1173.28C1172.04 1543.23 1171.03 1542.21 1171.03 1540.97C1171.03 1539.73 1172.04 1538.72 1173.28 1538.72H1191.63C1192.87 1538.72 1193.88 1539.73 1193.88 1540.97C1193.88 1542.21 1192.87 1543.23 1191.63 1543.23Z" fill="#9EC8FF"/>
<path d="M1191.63 1550.31H1173.28C1172.04 1550.31 1171.03 1549.29 1171.03 1548.05C1171.03 1546.81 1172.04 1545.8 1173.28 1545.8H1191.63C1192.87 1545.8 1193.88 1546.81 1193.88 1548.05C1193.88 1549.29 1192.87 1550.31 1191.63 1550.31Z" fill="#9EC8FF"/>
<path d="M1368.79 1511.37H1350.45C1349.21 1511.37 1348.2 1510.35 1348.2 1509.12C1348.2 1507.88 1349.21 1506.87 1350.45 1506.87H1368.79C1370.03 1506.87 1371.04 1507.88 1371.04 1509.12C1371.04 1510.35 1370.03 1511.37 1368.79 1511.37Z" fill="#9EC8FF"/>
<path d="M1368.79 1518.44H1350.45C1349.21 1518.44 1348.2 1517.44 1348.2 1516.2C1348.2 1514.96 1349.21 1513.95 1350.45 1513.95H1368.79C1370.03 1513.95 1371.04 1514.96 1371.04 1516.2C1371.04 1517.44 1370.03 1518.44 1368.79 1518.44Z" fill="#9EC8FF"/>
<path d="M1242.39 1584.25H1215.21C1212.87 1584.25 1210.93 1582.33 1210.93 1579.99V1567.77C1210.93 1565.43 1212.87 1563.51 1215.21 1563.51H1242.39C1244.73 1563.51 1246.67 1565.43 1246.67 1567.77V1579.99C1246.67 1582.33 1244.73 1584.25 1242.39 1584.25Z" fill="#9CD499"/>
<path d="M1226.88 1580.84H1226.8C1226.21 1580.81 1225.67 1580.55 1225.28 1580.11L1220.2 1574.33C1219.41 1573.45 1219.51 1572.11 1220.39 1571.32C1221.27 1570.55 1222.61 1570.63 1223.4 1571.52L1227 1575.6L1236.24 1566.55C1237.08 1565.72 1238.44 1565.73 1239.27 1566.59C1240.08 1567.43 1240.07 1568.77 1239.23 1569.6L1228.37 1580.23C1227.97 1580.61 1227.44 1580.84 1226.88 1580.84" fill="white"/>
<path d="M1369.35 1496.88H1342.17C1339.83 1496.88 1337.89 1494.96 1337.89 1492.61V1480.4C1337.89 1478.05 1339.83 1476.13 1342.17 1476.13H1369.35C1371.69 1476.13 1373.61 1478.05 1373.61 1480.4V1492.61C1373.61 1494.96 1371.69 1496.88 1369.35 1496.88Z" fill="#9CD499"/>
<path d="M1353.84 1493.45H1353.76C1353.17 1493.44 1352.63 1493.17 1352.24 1492.73L1347.15 1486.96C1346.37 1486.08 1346.47 1484.72 1347.35 1483.95C1348.23 1483.17 1349.57 1483.25 1350.36 1484.15L1353.95 1488.23L1363.2 1479.17C1364.04 1478.35 1365.4 1478.36 1366.23 1479.21C1367.04 1480.05 1367.03 1481.4 1366.19 1482.23L1355.33 1492.85C1354.93 1493.24 1354.4 1493.45 1353.84 1493.45" fill="white"/>
<path d="M1364.45 1573.16C1364.45 1578.49 1360.12 1582.81 1354.79 1582.81C1349.47 1582.81 1345.13 1578.49 1345.13 1573.16C1345.13 1567.83 1349.47 1563.51 1354.79 1563.51C1360.12 1563.51 1364.45 1567.83 1364.45 1573.16Z" fill="#9EC8FF"/>
<path d="M1239.41 1602.6C1239.41 1607.93 1235.09 1612.25 1229.76 1612.25C1224.43 1612.25 1220.11 1607.93 1220.11 1602.6C1220.11 1597.27 1224.43 1592.95 1229.76 1592.95C1235.09 1592.95 1239.41 1597.27 1239.41 1602.6Z" fill="#9EC8FF"/>
<path d="M1295.4 1719.77H1098.32C1096.47 1719.77 1094.97 1718.27 1094.97 1716.43V1606.59C1094.97 1604.73 1096.47 1603.24 1098.32 1603.24H1295.4C1297.25 1603.24 1298.75 1604.73 1298.75 1606.59V1716.43C1298.75 1718.27 1297.25 1719.77 1295.4 1719.77Z" fill="#9EC8FF"/>
<path d="M1291.16 1714.64H1102.57C1100.84 1714.64 1099.44 1713.24 1099.44 1711.51V1611.49C1099.44 1609.77 1100.84 1608.37 1102.57 1608.37H1291.16C1292.88 1608.37 1294.28 1609.77 1294.28 1611.49V1711.51C1294.28 1713.24 1292.88 1714.64 1291.16 1714.64Z" fill="white"/>
<path d="M1285.39 1708.12H1108.33C1106.4 1708.12 1104.83 1706.55 1104.83 1704.61V1618.4C1104.83 1616.45 1106.4 1614.89 1108.33 1614.89H1285.39C1287.33 1614.89 1288.89 1616.45 1288.89 1618.4V1704.61C1288.89 1706.55 1287.33 1708.12 1285.39 1708.12" fill="#9EC8FF"/>
<path d="M1229.21 1661.51C1229.21 1679.37 1214.73 1693.85 1196.87 1693.85C1179 1693.85 1164.52 1679.37 1164.52 1661.51C1164.52 1643.64 1179 1629.16 1196.87 1629.16C1214.73 1629.16 1229.21 1643.64 1229.21 1661.51Z" fill="white"/>
<path d="M1224.72 1661.51C1224.72 1676.89 1212.25 1689.36 1196.87 1689.36C1181.48 1689.36 1169.01 1676.89 1169.01 1661.51C1169.01 1646.12 1181.48 1633.65 1196.87 1633.65C1212.25 1633.65 1224.72 1646.12 1224.72 1661.51Z" fill="#9EC8FF"/>
<path d="M1210.59 1660.01L1200.41 1665.89L1190.23 1671.77V1648.25L1200.41 1654.13L1210.59 1660.01" fill="white"/>
<path d="M1082.05 1324.07H954.608C951.422 1324.07 948.815 1321.47 948.815 1318.28C948.815 1315.09 951.422 1312.48 954.608 1312.48H1082.05C1085.24 1312.48 1087.84 1315.09 1087.84 1318.28C1087.84 1321.47 1085.24 1324.07 1082.05 1324.07Z" fill="#9EC8FF"/>
<path d="M1415.13 1813.56H1287.69C1284.51 1813.56 1281.89 1810.95 1281.89 1807.76C1281.89 1804.57 1284.51 1801.97 1287.69 1801.97H1415.13C1418.32 1801.97 1420.93 1804.57 1420.93 1807.76C1420.93 1810.95 1418.32 1813.56 1415.13 1813.56Z" fill="#9EC8FF"/>
<path d="M1415.13 1834.8H1287.69C1284.51 1834.8 1281.89 1832.19 1281.89 1829C1281.89 1825.81 1284.51 1823.21 1287.69 1823.21H1415.13C1418.32 1823.21 1420.93 1825.81 1420.93 1829C1420.93 1832.19 1418.32 1834.8 1415.13 1834.8Z" fill="#9EC8FF"/>
<path d="M1415.13 1857.97H1287.69C1284.51 1857.97 1281.89 1855.36 1281.89 1852.17C1281.89 1848.99 1284.51 1846.39 1287.69 1846.39H1415.13C1418.32 1846.39 1420.93 1848.99 1420.93 1852.17C1420.93 1855.36 1418.32 1857.97 1415.13 1857.97Z" fill="#9EC8FF"/>
<path d="M1164.11 1346.28H954.608C951.422 1346.28 948.815 1343.67 948.815 1340.48C948.815 1337.29 951.422 1334.69 954.608 1334.69H1164.11C1167.29 1334.69 1169.91 1337.29 1169.91 1340.48C1169.91 1343.67 1167.29 1346.28 1164.11 1346.28Z" fill="#9EC8FF"/>
<path d="M259.603 1667.33C226.296 1697.75 240.778 1728.16 265.395 1784.64C290.014 1841.12 294.359 2049.64 294.359 2049.64L274.084 2046.75C274.084 2046.75 276.98 1832.43 249.467 1774.51C221.952 1716.57 210.367 1687.61 185.75 1706.44C161.131 1725.27 259.603 1667.33 259.603 1667.33" fill="#74B570"/>
<path d="M277.9 1627.96C273.855 1609.95 249.833 1590.44 217.711 1573.91C222.487 1600.48 237.8 1643.95 221.952 1652.85C200.579 1664.88 219.868 1604.2 211.621 1570.85C181.459 1556.12 145.176 1544.08 111.76 1538.09C111.808 1538.21 111.845 1538.33 111.895 1538.45C130.72 1586.24 155.337 1605.07 145.201 1612.31C137.575 1617.76 112.735 1562.56 79.9335 1534.27C55.3122 1532.95 34.4842 1536.28 22.1615 1546.04C3.11616 1561.12 -9.66784 1574.49 9.48815 1620.41C20.4308 1628.23 34.6042 1633.84 51.0735 1635.48C94.5175 1639.83 114.791 1641.28 84.3802 1655.76C69.4882 1662.84 44.5282 1655.36 24.2895 1650.79C30.8548 1662.89 38.9228 1676.59 48.7308 1692.17C54.9508 1702.07 61.8055 1710.65 69.0841 1718.08C83.0868 1720.76 95.2935 1720.8 101.757 1718.03C122.031 1709.33 174.164 1681.83 187.196 1693.4C199.953 1704.75 90.6468 1711.92 98.2215 1740.75C151.203 1771.27 211.829 1756.75 222.545 1728.71C236.937 1691.07 290.079 1682.21 277.9 1627.96" fill="#9CD499"/>
<path d="M168.371 1833.88C226.296 1790.43 285.67 1830.97 316.08 1877.32C346.491 1923.65 324.77 2027.92 324.77 2027.92C324.77 2027.92 313.184 2027.92 313.184 2023.57C313.184 2019.24 345.043 1900.49 269.74 1846.91C222.632 1813.39 188.644 1829.53 184.302 1845.45C179.956 1861.39 203.127 1890.35 203.127 1890.35L168.371 1833.88" fill="#74B570"/>
<path d="M301.599 1744.57C243.674 1744.57 224.848 1834.36 240.778 1886.49C256.707 1938.63 278.43 2035.64 278.43 2035.64L292.911 2021.16C292.911 2021.16 237.882 1885.04 250.915 1824.21C263.948 1763.4 295.806 1753.27 301.599 1753.27C307.392 1753.27 301.599 1744.57 301.599 1744.57Z" fill="#9CD499"/>
<path d="M253.016 1886.89C248.943 1881.49 243.909 1877.04 237.768 1874.08C238.572 1878.39 239.575 1882.55 240.777 1886.49C248.035 1910.24 256.495 1943.31 263.556 1972.28C264.197 1968.57 265.187 1962.85 266.713 1954.04C267.073 1951.95 267.356 1949.69 267.553 1947.29C261.881 1928 256.52 1906.99 253.016 1886.89" fill="#74B570"/>
<path d="M237.179 1887.33C127.122 1840.99 185.106 1777.4 88.0817 1819.39C81.247 1822.35 72.9177 1829.81 64.579 1840.09C73.2203 1842.55 83.6843 1844.31 95.3216 1842.56C124.284 1838.21 114.147 1861.39 66.359 1867.19C57.351 1868.28 50.043 1869.77 43.9656 1871.91C21.199 1915.63 10.939 1973.17 59.1176 1993.17C68.611 1997.11 80.3456 1999.36 93.407 2000.2C108.275 1988.39 89.779 1920.01 112.699 1929.45C134.704 1938.51 105.804 1988.07 109.764 2000.55C131.486 2000.16 155.532 1996.61 178.514 1990.92C187.608 1985.81 194.551 1978.99 196.691 1970C203.931 1939.59 156.143 1920.76 154.695 1894.69C153.363 1870.73 172.21 1947.41 222.14 1958.71C267.291 1937.61 288.624 1908.99 237.179 1887.33Z" fill="#9CD499"/>
<path d="M315.597 1805.39C304.013 1780.77 334.423 1774.99 332.975 1793.81C331.692 1810.49 331.549 1851.04 348.659 1862.08C378.164 1858.88 418.307 1847 448.655 1828.87C449.036 1826.43 448.667 1823.91 447.377 1821.32C434.344 1795.25 350.353 1773.53 376.419 1764.84C397.18 1757.92 433.556 1798.77 462.868 1819.35C480.475 1805.99 492.269 1790.07 492.269 1772.29C492.269 1748.23 463.037 1721 425.233 1707.99C408.22 1709.69 392.416 1719 367.731 1732.99C331.264 1753.65 339.697 1720.24 374.176 1700.41C344.412 1701.95 314.736 1714.67 292.848 1745.05C292.848 1745.05 294.917 1758.04 281.175 1778.13C243.679 1832.93 286.951 1864.92 338.679 1862.84C335.753 1848.4 323.603 1822.4 315.597 1805.39Z" fill="#9CD499"/>
<path d="M171.856 1831.41C143.536 1853.31 112.077 1878.89 73.4601 1896.27C34.8401 1913.64 42.5641 1970.28 42.5641 1970.28C42.5641 1970.28 36.7721 1921.37 68.9534 1904.63C101.136 1887.89 122.376 1867.95 146.835 1864.08C171.293 1860.23 184.809 1856.36 184.809 1856.36C184.809 1856.36 177.085 1840.91 181.591 1835.12C186.097 1829.33 171.856 1831.41 171.856 1831.41" fill="#74B570"/>
<path d="M32.2666 1574.44C135.892 1602.12 211.843 1668.41 226.003 1684.51C240.163 1700.6 240.163 1705.11 240.163 1705.11L229.221 1725.71L224.072 1723.12C224.072 1723.12 232.439 1705.75 210.556 1683.23C172.816 1644.37 126.881 1613.71 95.3426 1600.19C63.8053 1586.67 32.2666 1574.44 32.2666 1574.44Z" fill="#74B570"/>
<path d="M318.309 2148.04H278.719C250.567 2148.04 227.744 2125.21 227.744 2097.07V2006.11H369.284V2097.07C369.284 2125.21 346.463 2148.04 318.309 2148.04Z" fill="#F39892"/>
</svg>
