<svg width="4267" height="2667" viewBox="0 0 4267 2667" fill="none" xmlns="http://www.w3.org/2000/svg">
<path d="M460.381 2276.47C460.553 2276.6 3822.39 2276.05 3822.39 2276.05C3933.07 2039.97 3932.88 1924.63 3945.48 1789.31C4015.01 1041.37 3451.68 926.387 3286.65 895.2C2781.33 799.707 3011.32 327.214 1694.55 415.867C1573.85 423.987 1289.3 489.587 1191.23 532.08C1122.45 561.867 863.308 695.134 787.275 920.56C763.26 991.707 757.499 1072.04 781.711 1161.19C867.407 1476.68 643.991 1458.55 480.735 1608.89C262.839 1809.53 285.616 2137.68 460.381 2276.47Z" fill="#EBF3FA"/>
<path d="M2462.95 2276.27H2463.4C2466.12 2276.27 2468.31 2274.03 2468.24 2271.31L2460.91 1953.44L2439.31 1950.92L2457.73 2271.33C2457.89 2274.11 2460.17 2276.27 2462.95 2276.27Z" fill="#B0D4FF"/>
<path d="M2588.84 2276.27H2589.29C2592.01 2276.27 2594.2 2274.03 2594.13 2271.31L2586.8 1953.44L2565.2 1950.92L2583.61 2271.33C2583.77 2274.11 2586.07 2276.27 2588.84 2276.27Z" fill="#95C0F4"/>
<path d="M2241.44 2276.27H2240.99C2238.27 2276.27 2236.09 2274.03 2236.15 2271.31L2243.48 1953.44L2265.09 1950.92L2246.67 2271.33C2246.51 2274.11 2244.21 2276.27 2241.44 2276.27Z" fill="#B0D4FF"/>
<path d="M2603.15 1933.72V1715.91C2603.15 1677.57 2572.08 1646.51 2533.76 1646.51H2376.81C2338.49 1646.51 2307.41 1677.57 2307.41 1715.91V1942.05L2603.15 1933.72Z" fill="#B0D4FF"/>
<path d="M2279.31 1968.11H2582.32C2593.83 1968.11 2603.15 1958.79 2603.15 1947.28V1933.72H2279.31V1968.11Z" fill="#95C0F4"/>
<path d="M2242.99 1968.11H2472.23C2480.75 1968.11 2487.64 1961.21 2487.64 1952.71V1949.13C2487.64 1940.63 2480.75 1933.72 2472.23 1933.72H2242.99C2234.48 1933.72 2227.59 1940.63 2227.59 1949.13V1952.71C2227.59 1961.21 2234.48 1968.11 2242.99 1968.11Z" fill="#CAE5FF"/>
<path d="M2771.23 1568.27H1866.52V787.28H2771.23V1568.27Z" fill="#95C0F4"/>
<path d="M2753.63 1552.69H1883.73V800.294H2753.63V1552.69Z" fill="#DFEDFB"/>
<path d="M2187.77 1127.65H1997.16V889.627L2029.48 860.493H2187.77V1127.65Z" fill="white"/>
<path d="M1997.16 889.627H2028.44L2029.48 860.493L1997.16 889.627Z" fill="#B0D4FF"/>
<path d="M2122.99 886.56H2061.95V883.654H2122.99V886.56Z" fill="#B0D4FF"/>
<path d="M2137.35 895.28H2047.59V892.373H2137.35V895.28Z" fill="#B0D4FF"/>
<path d="M2168.77 952.107H2019.72V948.373H2168.77V952.107Z" fill="#B0D4FF"/>
<path d="M2168.77 963.467H2019.72V959.72H2168.77V963.467Z" fill="#B0D4FF"/>
<path d="M2168.77 974.813H2019.72V971.08H2168.77V974.813Z" fill="#B0D4FF"/>
<path d="M2168.77 986.16H2019.72V982.427H2168.77V986.16Z" fill="#B0D4FF"/>
<path d="M2168.77 1107.6H2019.72V1103.87H2168.77V1107.6Z" fill="#B0D4FF"/>
<path d="M2407.88 1457.89H2217.25V1219.87L2249.59 1190.73H2407.88V1457.89Z" fill="white"/>
<path d="M2217.25 1219.87H2248.55L2249.59 1190.73L2217.25 1219.87Z" fill="#B0D4FF"/>
<path d="M2343.08 1216.8H2282.05V1213.89H2343.08V1216.8Z" fill="#B0D4FF"/>
<path d="M2357.45 1225.52H2267.68V1222.61H2357.45V1225.52Z" fill="#B0D4FF"/>
<path d="M2388.88 1282.35H2239.83V1278.61H2388.88V1282.35Z" fill="#B0D4FF"/>
<path d="M2388.88 1293.71H2239.83V1289.96H2388.88V1293.71Z" fill="#B0D4FF"/>
<path d="M2388.88 1305.05H2239.83V1301.31H2388.88V1305.05Z" fill="#B0D4FF"/>
<path d="M2388.88 1316.4H2239.83V1312.67H2388.88V1316.4Z" fill="#B0D4FF"/>
<path d="M2388.88 1351.32H2239.83V1347.59H2388.88V1351.32Z" fill="#B0D4FF"/>
<path d="M2388.88 1362.67H2239.83V1358.93H2388.88V1362.67Z" fill="#B0D4FF"/>
<path d="M2388.88 1375.83H2239.83V1372.09H2388.88V1375.83Z" fill="#B0D4FF"/>
<path d="M2410.19 860.493H2515.44V953.28H2410.19V860.493Z" fill="#B0D4FF"/>
<path d="M2458.21 871.533C2458.21 868.987 2460.27 866.933 2462.81 866.933C2465.36 866.933 2467.43 868.987 2467.43 871.533C2467.43 874.08 2465.36 876.147 2462.81 876.147C2460.27 876.147 2458.21 874.08 2458.21 871.533Z" fill="#FFA412"/>
<path d="M2407.08 989.773L2512.08 982.44L2518.55 1075.01L2413.55 1082.35L2407.08 989.773Z" fill="white"/>
<path d="M2456.16 1003.19C2455.99 1000.65 2457.89 998.453 2460.44 998.28C2462.97 998.093 2465.17 1000.01 2465.35 1002.55C2465.53 1005.09 2463.61 1007.29 2461.08 1007.47C2458.53 1007.64 2456.33 1005.73 2456.16 1003.19Z" fill="#B0D4FF"/>
<path d="M2057.31 1331.64L2162.32 1324.31L2168.77 1416.88L2063.77 1424.21L2057.31 1331.64Z" fill="white"/>
<path d="M2106.39 1345.05C2106.21 1342.52 2108.12 1340.32 2110.67 1340.13C2113.2 1339.96 2115.4 1341.88 2115.59 1344.41C2115.76 1346.96 2113.84 1349.16 2111.31 1349.33C2108.76 1349.51 2106.56 1347.6 2106.39 1345.05Z" fill="#B0D4FF"/>
<path d="M1924.95 1391.99L2030.2 1390.91L2031.15 1483.69L1925.91 1484.77L1924.95 1391.99Z" fill="white"/>
<path d="M1973.13 1408.29C1973.12 1405.75 1975.16 1403.67 1977.71 1403.64C1980.24 1403.61 1982.33 1405.65 1982.36 1408.2C1982.39 1410.75 1980.35 1412.83 1977.8 1412.85C1975.25 1412.88 1973.16 1410.84 1973.13 1408.29Z" fill="#B0D4FF"/>
<path d="M2567.83 1038.49L2671.44 1057.01L2655.12 1148.36L2551.51 1129.84L2567.83 1038.49Z" fill="#EEF6FF"/>
<path d="M2613.48 1059.43C2613.87 1057.24 2615.95 1055.8 2618.13 1056.19C2620.31 1056.57 2621.76 1058.65 2621.37 1060.83C2620.99 1063.01 2618.89 1064.47 2616.72 1064.08C2614.55 1063.68 2613.09 1061.6 2613.48 1059.43Z" fill="#78ACEA"/>
<path d="M2243.47 991.933L2348.11 980.6L2358.09 1072.85L2253.45 1084.19L2243.47 991.933Z" fill="#EEF6FF"/>
<path d="M2293.16 999.2C2292.92 997 2294.51 995.013 2296.71 994.773C2298.91 994.547 2300.88 996.133 2301.12 998.333C2301.36 1000.53 2299.77 1002.51 2297.57 1002.75C2295.37 1002.99 2293.39 1001.4 2293.16 999.2Z" fill="#78ACEA"/>
<path d="M1971.96 1221.91L2074.89 1199.96L2094.25 1290.71L1991.31 1312.67L1971.96 1221.91Z" fill="#BAE8E3"/>
<path d="M2023.85 1226.56C2022 1225.35 2021.47 1222.87 2022.68 1221.01C2023.88 1219.16 2026.36 1218.63 2028.23 1219.83C2030.08 1221.03 2030.6 1223.52 2029.4 1225.37C2028.2 1227.23 2025.72 1227.76 2023.85 1226.56Z" fill="#FFA412"/>
<path d="M2350.87 953.28H2250.69V885.973L2278.43 860.493H2350.87V953.28Z" fill="white"/>
<path d="M2250.16 885.973H2277.52L2278.43 860.493L2250.16 885.973Z" fill="#B0D4FF"/>
<path d="M2301.15 869.08C2301.15 867.253 2302.63 865.787 2304.44 865.787C2306.27 865.787 2307.73 867.253 2307.73 869.08C2307.73 870.893 2306.27 872.373 2304.44 872.373C2302.63 872.373 2301.15 870.893 2301.15 869.08Z" fill="#B0D4FF"/>
<path d="M2643.59 1504.29H2543.4V1436.97L2571.13 1411.49H2643.59V1504.29Z" fill="white"/>
<path d="M2542.87 1436.97H2570.23L2571.13 1411.49L2542.87 1436.97Z" fill="#B0D4FF"/>
<path d="M2593.85 1420.08C2593.85 1418.27 2595.33 1416.79 2597.15 1416.79C2598.97 1416.79 2600.44 1418.27 2600.44 1420.08C2600.44 1421.89 2598.97 1423.37 2597.15 1423.37C2595.33 1423.37 2593.85 1421.89 2593.85 1420.08Z" fill="#B0D4FF"/>
<path d="M2689.28 1370.71H2589.11V1303.4L2616.84 1277.91H2689.28V1370.71Z" fill="white"/>
<path d="M2588.56 1303.4H2615.93L2616.84 1277.91L2588.56 1303.4Z" fill="#B0D4FF"/>
<path d="M2639.56 1286.49C2639.56 1284.68 2641.04 1283.2 2642.85 1283.2C2644.67 1283.2 2646.15 1284.68 2646.15 1286.49C2646.15 1288.32 2644.67 1289.79 2642.85 1289.79C2641.04 1289.79 2639.56 1288.32 2639.56 1286.49Z" fill="#B0D4FF"/>
<path d="M2557.08 1370.71H2456.89V1303.4L2484.63 1277.91H2557.08V1370.71Z" fill="#BAE8E3"/>
<path d="M2456.36 1303.4H2483.72L2484.63 1277.91L2456.36 1303.4Z" fill="#A1D6CE"/>
<path d="M2507.35 1286.49C2507.35 1284.68 2508.83 1283.2 2510.64 1283.2C2512.47 1283.2 2513.95 1284.68 2513.95 1286.49C2513.95 1288.32 2512.47 1289.79 2510.64 1289.79C2508.83 1289.79 2507.35 1288.32 2507.35 1286.49Z" fill="#F99746"/>
<path d="M2717.56 930.053H2617.37V862.747L2645.11 837.267H2717.56V930.053Z" fill="#BAE8E3"/>
<path d="M2616.84 862.747H2644.2L2645.11 837.267L2616.84 862.747Z" fill="#A1D6CE"/>
<path d="M2667.83 845.84C2667.83 844.027 2669.31 842.547 2671.12 842.547C2672.95 842.547 2674.41 844.027 2674.41 845.84C2674.41 847.667 2672.95 849.133 2671.12 849.133C2669.31 849.133 2667.83 847.667 2667.83 845.84Z" fill="#F99746"/>
<path d="M1726.87 768.387H1536.31C1527.56 768.387 1520.4 761.227 1520.4 752.48V568.56C1520.4 559.813 1527.56 552.654 1536.31 552.654H1726.87C1735.61 552.654 1742.77 559.813 1742.77 568.56V752.48C1742.77 761.227 1735.61 768.387 1726.87 768.387Z" fill="#C0D8FB"/>
<path d="M1718.61 759.04H1544.56C1536.57 759.04 1530.04 752.507 1530.04 744.52V576.534C1530.04 568.534 1536.57 562 1544.56 562H1718.61C1726.6 562 1733.15 568.534 1733.15 576.534V744.52C1733.15 752.507 1726.6 759.04 1718.61 759.04Z" fill="#DFEBFD"/>
<path d="M1626.99 581.693C1626.99 579.147 1629.04 577.08 1631.59 577.08C1634.13 577.08 1636.2 579.147 1636.2 581.693C1636.2 584.227 1634.13 586.293 1631.59 586.293C1629.04 586.293 1626.99 584.227 1626.99 581.693Z" fill="#B7D3F3"/>
<path d="M1664.15 588.2C1665.39 585.974 1668.19 585.173 1670.41 586.413C1672.64 587.653 1673.44 590.453 1672.2 592.68C1670.97 594.893 1668.16 595.694 1665.93 594.467C1663.72 593.227 1662.92 590.427 1664.15 588.2Z" fill="#B7D3F3"/>
<path d="M1696 613.493C1698.13 612.12 1700.99 612.733 1702.36 614.88C1703.75 617.013 1703.12 619.867 1700.99 621.24C1698.85 622.613 1696 622 1694.63 619.867C1693.24 617.733 1693.85 614.88 1696 613.493Z" fill="#B7D3F3"/>
<path d="M1711.77 652.654C1714.31 652.654 1716.37 654.72 1716.37 657.267C1716.37 659.813 1714.31 661.867 1711.77 661.867C1709.23 661.867 1707.16 659.813 1707.16 657.267C1707.16 654.72 1709.23 652.654 1711.77 652.654Z" fill="#B7D3F3"/>
<path d="M1703.72 698.093C1705.51 699.893 1705.51 702.813 1703.72 704.613C1701.92 706.413 1699 706.413 1697.2 704.613C1695.4 702.813 1695.4 699.893 1697.2 698.093C1699 696.307 1701.92 696.307 1703.72 698.093Z" fill="#B7D3F3"/>
<path d="M1674.79 727.107C1676.59 728.893 1676.59 731.813 1674.79 733.613C1672.99 735.413 1670.07 735.413 1668.28 733.613C1666.48 731.813 1666.48 728.893 1668.28 727.107C1670.07 725.307 1672.99 725.307 1674.79 727.107Z" fill="#B7D3F3"/>
<path d="M1626.99 742.053C1626.99 739.507 1629.04 737.44 1631.59 737.44C1634.13 737.44 1636.2 739.507 1636.2 742.053C1636.2 744.587 1634.13 746.653 1631.59 746.653C1629.04 746.653 1626.99 744.587 1626.99 742.053Z" fill="#B7D3F3"/>
<path d="M1598.88 588.2C1597.64 585.974 1594.84 585.173 1592.61 586.413C1590.39 587.653 1589.59 590.453 1590.83 592.68C1592.07 594.893 1594.87 595.694 1597.09 594.467C1599.31 593.227 1600.12 590.427 1598.88 588.2Z" fill="#B7D3F3"/>
<path d="M1567.04 613.493C1564.89 612.12 1562.04 612.733 1560.67 614.88C1559.29 617.013 1559.91 619.867 1562.04 621.24C1564.17 622.613 1567.03 622 1568.41 619.867C1569.79 617.733 1569.17 614.88 1567.04 613.493Z" fill="#B7D3F3"/>
<path d="M1551.27 652.654C1548.72 652.654 1546.65 654.72 1546.65 657.267C1546.65 659.813 1548.72 661.867 1551.27 661.867C1553.8 661.867 1555.87 659.813 1555.87 657.267C1555.87 654.72 1553.8 652.654 1551.27 652.654Z" fill="#B7D3F3"/>
<path d="M1559.32 698.093C1557.52 699.893 1557.52 702.813 1559.32 704.613C1561.12 706.413 1564.03 706.413 1565.83 704.613C1567.63 702.813 1567.63 699.893 1565.83 698.093C1564.03 696.307 1561.12 696.307 1559.32 698.093Z" fill="#B7D3F3"/>
<path d="M1588.24 727.107C1586.44 728.893 1586.44 731.813 1588.24 733.613C1590.04 735.413 1592.96 735.413 1594.76 733.613C1596.56 731.813 1596.56 728.893 1594.76 727.107C1592.96 725.307 1590.04 725.307 1588.24 727.107Z" fill="#B7D3F3"/>
<path d="M1630.35 657.267C1630.35 654.72 1632.41 652.654 1634.95 652.654C1637.49 652.654 1639.56 654.72 1639.56 657.267C1639.56 659.813 1637.49 661.867 1634.95 661.867C1632.41 661.867 1630.35 659.813 1630.35 657.267Z" fill="#B7D3F3"/>
<path d="M1635.59 657.267H1634.32V599.72H1635.59V657.267Z" fill="#B7D3F3"/>
<path d="M1635.53 658.667L1633.2 655.693L1663.72 631.747L1666.04 634.72L1635.53 658.667Z" fill="#B7D3F3"/>
<path d="M2899.99 2264.89C2899.08 2277.27 2881.61 2277.4 2861.8 2275.11C2841.99 2272.8 2847.25 2277.81 2819.51 2278.2C2791.77 2278.59 2782.21 2269.41 2780.87 2265.45C2779.67 2261.93 2793.03 2258.97 2807.32 2255.49C2809.12 2255.07 2810.93 2254.61 2812.73 2254.16C2828.85 2250.05 2839.52 2238 2853.31 2227.47C2866.37 2217.48 2883.23 2181.37 2883.23 2181.37L2921.12 2179.65C2921.12 2179.65 2905.16 2212.03 2899.16 2225.99C2895.64 2234.19 2897.15 2244.28 2898.67 2252.01C2899.49 2256.23 2900.31 2260.53 2899.99 2264.89Z" fill="#FFB27D"/>
<path d="M2861.8 2275.11C2841.99 2272.8 2847.25 2277.81 2819.51 2278.2C2791.77 2278.59 2782.21 2269.41 2780.87 2265.45C2779.67 2261.93 2793.03 2258.97 2807.32 2255.49L2807.49 2255.76C2807.49 2255.76 2825.36 2265.35 2848.2 2263.05C2866.83 2261.19 2885.83 2253.41 2898.67 2252.01C2899.49 2256.23 2900.31 2260.53 2899.99 2264.89C2899.08 2277.27 2881.61 2277.4 2861.8 2275.11Z" fill="#233862"/>
<path d="M3161.73 2267.45C3160.84 2279.84 3143.37 2279.99 3123.56 2277.71C3103.75 2275.43 3109.01 2280.44 3081.28 2280.85C3053.53 2281.27 3043.96 2272.11 3042.61 2268.15C3041.41 2264.63 3054.77 2261.65 3069.07 2258.16C3070.85 2257.72 3072.67 2257.27 3074.47 2256.81C3090.59 2252.69 3101.24 2240.63 3115.03 2230.08C3128.08 2220.08 3115.03 2160.93 3115.03 2160.93L3156.72 2156.88C3156.72 2156.88 3154.72 2206.68 3154.75 2229.32C3154.76 2238.25 3158.87 2246.84 3160.41 2254.59C3161.23 2258.8 3162.05 2263.09 3161.73 2267.45Z" fill="#FFB27D"/>
<path d="M3123.56 2277.71C3103.75 2275.43 3109.01 2280.44 3081.28 2280.85C3053.53 2281.27 3043.96 2272.11 3042.61 2268.15C3041.41 2264.63 3054.77 2261.65 3069.07 2258.16L3069.23 2258.41C3069.23 2258.41 3087.11 2267.99 3109.95 2265.67C3128.57 2263.79 3147.56 2255.99 3160.41 2254.59C3161.23 2258.8 3162.05 2263.09 3161.73 2267.45C3160.84 2279.84 3143.37 2279.99 3123.56 2277.71Z" fill="#233862"/>
<path d="M3040.08 1245.15C3032.91 1215.64 3043.31 1201.89 3052.69 1194.57C3057.15 1183.71 3062.23 1175.88 3067.41 1172.92C3076.89 1167.55 3088.24 1166.95 3096.19 1167.43C3094.15 1165.31 3090.12 1164.55 3090.12 1164.55C3095.04 1163.81 3106.04 1168.69 3106.04 1168.69C3174.53 1142.31 3185.29 1243.16 3183.85 1266.59C3182.43 1290.01 3182.61 1317.61 3218.25 1336.07C3286.25 1371.29 3195.65 1504.04 3195.65 1504.04C3197.39 1485.11 3110.03 1385.19 3064.44 1355.25C3053.35 1338.92 3049.4 1310.07 3049.11 1307.79C3051.03 1330.67 3054.93 1343.51 3058.44 1350.73C3037.67 1331.61 3034.59 1285.71 3040.08 1245.15Z" fill="#A9453D"/>
<path d="M3067.13 1356.75C3066.91 1356.85 3089.15 1368.39 3105.87 1363.81C3121.6 1359.53 3131.88 1339.13 3131.67 1339.08C3125 1337.76 3123.08 1328.6 3123.23 1289.27L3120.21 1289.85L3069.57 1299.88C3069.57 1299.88 3070.72 1315.83 3070.76 1330.84C3070.79 1343.44 3070.03 1355.4 3067.13 1356.75Z" fill="#FFB27D"/>
<path d="M3069.57 1299.88C3069.57 1299.88 3070.72 1315.83 3070.76 1330.84C3099.09 1330.04 3114.08 1304.19 3120.21 1289.85L3069.57 1299.88Z" fill="#ED975D"/>
<path d="M2863.52 2201.44C2861.04 2209.21 2866.61 2217.24 2874.77 2217.63L2894.56 2218.55L2915.49 2219.19C2920.73 2219.35 2925.73 2217.07 2929.04 2213C2945.76 2192.51 2997.19 2124.19 3028.39 2024.92C3029.27 2022.13 3030.19 2019.32 3031.17 2016.47C3051.77 1956.39 3094.49 1880.97 3117 1812.72C3120.59 1801.84 3123.8 1791.61 3126.68 1781.92C3127.61 1778.83 3128.51 1775.77 3129.36 1772.77C3145.96 1715.13 3150.76 1677.29 3155.19 1636.87L2992.64 1638.16C2992.64 1638.16 2958.43 1904.13 2863.52 2201.44Z" fill="#2A4E96"/>
<path d="M3015.4 1544.76C3015.81 1622.11 3004.05 1655.29 3004.05 1655.29C3004.05 1655.29 3073.64 1690.65 3156.36 1664.63C3157.33 1664.32 3224.84 1648.91 3224.84 1648.91C3223.47 1645.79 3211.15 1593.65 3209.8 1590.79C3192.33 1553.28 3179.08 1536.84 3177.01 1525.31C3173.17 1503.79 3173.08 1481.51 3175 1460.51C3180.04 1404.91 3195.05 1358.75 3195.05 1358.75C3172.52 1353.61 3151.41 1344.6 3127.96 1335.81C3122.56 1342.53 3106.07 1349.56 3091.76 1349.24C3075.28 1348.87 3069.93 1341.81 3070.79 1334.12C3053.24 1343.89 3039.23 1353.12 3039.23 1353.12C3024.31 1379.04 2994.04 1404.21 2991.85 1443.97C2991.31 1453.75 3015.39 1542.6 3015.4 1544.76Z" fill="white"/>
<path d="M3155.19 1553.39C3162.29 1563.44 3175.91 1624.56 3209.8 1632.25C3192.33 1588.68 3179.08 1569.59 3177.01 1556.19C3173.17 1531.19 3173.08 1505.32 3175 1480.92C3163.65 1461.04 3155.19 1447.4 3155.19 1447.4C3154.29 1444.19 3137.16 1391.2 3131.67 1438.56C3126.19 1485.95 3147.25 1542.13 3155.19 1553.39Z" fill="#5F9AA8"/>
<path d="M3060.11 1314.09C3060.11 1314.09 3127.16 1315.21 3127.2 1273.44C3127.25 1231.68 3135.93 1203.69 3093.12 1201.21C3050.32 1198.75 3041.99 1214.67 3038.57 1228.61C3035.17 1242.55 3042.67 1312.73 3060.11 1314.09Z" fill="#FFB27D"/>
<path d="M3062.59 1200.19C3062.59 1200.19 3080.95 1249.19 3109.12 1256.44C3137.29 1263.68 3149.52 1256.13 3149.52 1256.13C3149.52 1256.13 3127.91 1238.96 3123.41 1209C3123.41 1209 3076.44 1176.87 3062.59 1200.19Z" fill="#A9453D"/>
<path d="M3067.13 1204.17C3067.13 1204.17 3053.43 1215.11 3050.08 1225.75C3046.75 1236.39 3045.24 1258.28 3038.85 1257.53C3038.85 1257.53 3025.03 1224.23 3040.57 1205.39C3057.05 1185.41 3067.13 1204.17 3067.13 1204.17Z" fill="#A9453D"/>
<path d="M2954.6 1598.45L2922.93 1695L2941 1702.24L2993.36 1616.95L2954.6 1598.45Z" fill="#FFB27D"/>
<path d="M3039.99 1347.43C3039.99 1347.43 3002.64 1362.25 2991.84 1385.35C2981.03 1408.45 2964.67 1563.41 2958.15 1579.33C2951.63 1595.24 2946.73 1607.84 2946.73 1607.84C2946.73 1607.84 2965.56 1623.71 2984.49 1624.87C3003.43 1626.04 3039.99 1347.43 3039.99 1347.43Z" fill="#F99746"/>
<path d="M3070.79 1334.12C3070.79 1334.12 3032 1429.96 3030.85 1449.35C3029.72 1468.75 3026.29 1766.51 3026.29 1766.51C3026.29 1766.51 3028.57 1780.2 3002.33 1774.49C2976.09 1768.8 2969.25 1763.09 2969.25 1763.09C2969.25 1763.09 2994.35 1579.41 2987.51 1515.52C2980.67 1451.63 3039.99 1347.43 3039.99 1347.43L3070.79 1334.12Z" fill="#F99746"/>
<path d="M2894.56 2218.55L2917.29 2219.24C2921.35 2219.37 2925.24 2217.61 2927.83 2214.48C2943.11 2195.99 2996.39 2126.72 3028.39 2024.92C3029.27 2022.13 3030.19 2019.32 3031.17 2016.47C3051.77 1956.39 3094.49 1880.97 3117 1812.72C3120.59 1801.84 3123.8 1791.61 3126.68 1781.92C3127.61 1778.83 3128.51 1775.77 3129.36 1772.77L3105.43 1754.61C3105.43 1754.61 3033.56 1870.97 3011.32 1980.49C2992 2075.61 2914.6 2190.08 2894.56 2218.55Z" fill="#1E3D70"/>
<path d="M3102.93 1990.69C3102.55 2041.08 3104.93 2153.37 3111.07 2208.27C3111.63 2213.29 3115.87 2217.08 3120.93 2217.08H3137.89C3145.04 2217.08 3150.39 2217.03 3153.93 2216.97C3157.01 2216.93 3159.64 2214.72 3160.23 2211.71C3177.09 2125.88 3189.16 2054.59 3198 1992.97C3205.4 1941.41 3211.96 1897.2 3217.01 1859.13C3222.11 1820.84 3225.64 1788.77 3226.91 1761.67C3227.11 1757.41 3227.25 1753.25 3227.33 1749.23C3227.41 1745.17 3227.44 1741.24 3227.4 1737.41L3086.96 1723.73C3088.73 1817.04 3103.16 1959.75 3102.93 1990.69Z" fill="#2A4E96"/>
<path d="M3137.89 2217.08C3144.31 2217.08 3149.28 2217.04 3152.8 2216.99C3156.53 2216.93 3159.72 2214.27 3160.44 2210.6C3177.2 2125.27 3189.2 2054.32 3198 1992.97C3205.4 1941.41 3211.96 1897.2 3217.01 1859.13C3222.11 1820.84 3225.64 1788.77 3226.91 1761.67L3175.37 1791.99C3175.37 1791.99 3208.27 1803.59 3195.72 1891.44C3183.17 1979.28 3155.36 2204.64 3137.89 2217.08Z" fill="#1E3D70"/>
<path d="M3131.25 1760.81C3131.25 1760.81 3141.15 1796.55 3175.37 1791.99C3209.6 1787.43 3258.27 1766.89 3258.27 1766.89C3258.27 1766.89 3243.64 1720.67 3225.45 1659.96C3203.44 1586.45 3176.19 1491.69 3163.33 1431.92C3159.73 1415.17 3157.27 1401.19 3156.36 1391.16L3127.96 1336.07C3127.96 1336.07 3085.63 1431.09 3083.33 1455.05C3081.05 1479.01 3131.25 1760.81 3131.25 1760.81Z" fill="#F99746"/>
<path d="M3165.43 1451.48L3127.96 1336.07C3128.05 1336.12 3175.29 1350.12 3199.05 1362.13C3199.05 1362.13 3213.89 1381.28 3223.08 1425.44C3223.08 1425.44 3232.8 1531.49 3211.12 1570.28C3211.12 1570.28 3142.67 1583.97 3033.15 1546.32V1521.23C3033.15 1521.23 3152.93 1527.49 3177.47 1530.35L3165.43 1451.48Z" fill="#FFB27D"/>
<path d="M3132.77 1505.25C3134.31 1544.04 3143.43 1619.33 3224.81 1659.64C3225.03 1659.75 3225.24 1659.87 3225.45 1659.96C3203.44 1586.45 3176.19 1491.69 3163.33 1431.92C3148.39 1454.25 3131.95 1483.89 3132.77 1505.25Z" fill="#ED7D2B"/>
<path d="M3127.96 1336.07C3127.96 1336.07 3197.43 1340.97 3214.16 1378.24C3230.89 1415.51 3236.21 1539.48 3214.92 1575.99C3214.92 1575.99 3185.6 1584.33 3133.75 1574.64C3133.11 1574.52 3132.47 1574.4 3131.83 1574.28C3131.83 1574.28 3115.28 1533.77 3130.12 1525.79C3130.12 1525.79 3173.85 1528.07 3169.28 1513.61C3164.72 1499.17 3127.96 1336.07 3127.96 1336.07Z" fill="#F99746"/>
<path d="M2953.77 1536.73L2955.81 1543.31L3069.81 1507.85C3069.81 1507.85 3071.33 1506.12 3070.59 1503.81C3069.76 1501.28 3067.77 1501.27 3067.77 1501.27L2953.77 1536.73Z" fill="#A9453D"/>
<path d="M2945.53 1542.95L2953.77 1536.73L2955.81 1543.31L2945.53 1542.95Z" fill="#A9453D"/>
<path d="M2927.44 1692.36C2927.44 1692.36 2898.52 1708.35 2894.71 1720.52C2890.91 1732.69 2893.52 1758.19 2898.11 1757.81C2902.71 1757.43 2909.55 1730.41 2913.36 1728.51C2917.16 1726.61 2922.49 1720.91 2922.49 1725.09C2922.49 1729.27 2918.68 1736.88 2920.59 1738.03C2922.49 1739.16 2928.57 1727.37 2932.76 1725.09C2936.95 1722.8 2938.71 1703.99 2942.77 1698.93C2946.84 1693.88 2927.44 1692.36 2927.44 1692.36Z" fill="#FFB27D"/>
<path d="M3033.15 1521.23C3033.15 1521.23 3007.28 1505.29 2996.43 1507.75C2985.59 1510.2 2957.93 1530.23 2971.23 1534.56C2984.53 1538.89 2995.31 1534.35 3000.41 1537.49C3005.53 1540.64 3009.31 1546.4 3033.15 1546.32C3056.97 1546.24 3033.15 1521.23 3033.15 1521.23Z" fill="#FFB27D"/>
<path d="M999.28 1350.11C994.945 1341.75 1093.86 1311.64 1095.43 1394.16C1095.43 1394.16 1280.73 1389.6 1192.26 1286.32C1161.63 1250.56 1164.78 1221 1165.69 1193.48C1166.63 1165.95 1146.62 1085.96 1078.03 1094.01C1078.03 1094.01 1060.07 1086.71 1037.65 1098.35C986.672 1124.79 872.475 1380.53 999.28 1350.11Z" fill="#163560"/>
<path d="M1302.23 1442.36C1302.23 1442.36 1314.29 1424 1324.01 1423.64C1333.73 1423.28 1351.73 1418.24 1350.29 1421.84C1348.85 1425.44 1337.69 1425.8 1336.61 1427.96C1335.53 1430.12 1353.17 1433.36 1358.21 1433.72C1363.25 1434.08 1375.13 1433.72 1374.77 1436.24C1374.41 1438.76 1353.36 1449.2 1338.51 1447.76C1323.65 1446.32 1305.29 1452.08 1305.29 1452.08L1302.23 1442.36Z" fill="#FFB27D"/>
<path d="M1127.79 1448.31C1127.79 1448.31 1134.34 1461.28 1146.23 1476.2C1160.57 1494.15 1182.67 1514.89 1210.42 1518.99C1223.67 1520.93 1236.63 1518.09 1248.55 1512.8C1248.58 1512.79 1248.59 1512.79 1248.59 1512.79C1282.29 1497.83 1307.63 1463.43 1307.63 1463.43C1313.57 1447.23 1303.85 1436.24 1303.85 1436.24C1303.85 1436.24 1235.8 1451.55 1229.32 1448.31C1222.84 1445.07 1185.03 1336.15 1176.04 1322.47C1167.03 1308.79 1136.35 1301.68 1136.35 1301.68L1127.79 1448.31Z" fill="#B0D0FF"/>
<path d="M1146.23 1476.2C1160.57 1494.15 1182.67 1514.89 1210.42 1518.99C1223.67 1520.93 1236.63 1518.09 1248.55 1512.8C1247.23 1512.97 1213.57 1517.13 1200.15 1493.13C1186.47 1468.64 1171.67 1429.76 1151.34 1442.72C1142.57 1448.31 1142.96 1462.21 1146.23 1476.2Z" fill="#98BAF4"/>
<path d="M873.911 2182.84C873.911 2182.84 853.147 2201.8 857.199 2215.25C861.251 2228.72 879.988 2237.69 882.52 2254.16C885.053 2270.61 895.181 2279.59 904.297 2279.59C913.413 2279.59 947.757 2279.59 947.757 2279.59C947.757 2279.59 954.468 2268 938.261 2264.52C922.056 2261.03 915.945 2241.69 916.959 2223.73C917.972 2205.79 915.439 2181.85 915.439 2181.85L881.001 2173.87L873.911 2182.84Z" fill="#233862"/>
<path d="M1049.66 2190.89C1049.66 2190.89 1042.19 2271.16 1051.3 2275.65L1167.97 2275.41C1167.97 2275.41 1167.97 2261.95 1149.23 2258.96C1130.49 2255.96 1097.57 2245 1092 2220.56C1086.43 2196.12 1049.66 2190.89 1049.66 2190.89Z" fill="#233862"/>
<path d="M966.521 1614.97C990.528 1561.13 1005.22 1545.68 1002.41 1528.97C1000.33 1516.53 1008.77 1297.08 1008.77 1297.08C1011.62 1296.2 1017.33 1295.4 1020.45 1294.71C1030.3 1292.52 1038.45 1285.61 1041.84 1276.11C1045.93 1264.67 1049.17 1247.77 1049.1 1226.59L1052.17 1227.2L1103.88 1237.44C1103.88 1237.44 1102.71 1253.71 1102.67 1269.04C1102.67 1269.17 1102.67 1269.29 1102.67 1269.43C1102.61 1282.73 1111.34 1294.48 1124.13 1298.17C1130.66 1300.07 1136.35 1301.68 1136.35 1301.68C1136.35 1301.68 1155.33 1355.88 1158.96 1411.57C1162.59 1467.27 1124.43 1491.45 1159.25 1602.73C1194.79 1716.4 953.259 1644.72 966.521 1614.97Z" fill="#FFB27D"/>
<path d="M1103.88 1237.44C1103.88 1237.44 1102.71 1253.71 1102.67 1269.04C1073.74 1268.23 1058.44 1241.83 1052.17 1227.2L1103.88 1237.44Z" fill="#E8945B"/>
<path d="M1113.55 1251.95C1113.55 1251.95 1045.09 1253.08 1045.04 1210.44C1044.99 1167.8 1036.12 1139.23 1079.83 1136.69C1123.54 1134.17 1132.05 1150.44 1135.53 1164.67C1139.01 1178.89 1131.35 1250.56 1113.55 1251.95Z" fill="#FFB27D"/>
<path d="M1111.01 1135.65C1111.01 1135.65 1092.27 1185.68 1063.5 1193.08C1034.73 1200.48 1022.26 1192.77 1022.26 1192.77C1022.26 1192.77 1044.32 1175.24 1048.9 1144.64C1048.9 1144.64 1096.87 1111.84 1111.01 1135.65Z" fill="#163560"/>
<path d="M1106.37 1139.71C1106.37 1139.71 1120.27 1144.91 1125.99 1155.04C1131.58 1164.96 1136.35 1178.09 1135.24 1194.2C1135.24 1194.2 1149.36 1160.19 1133.49 1140.96C1116.66 1120.56 1106.37 1139.71 1106.37 1139.71Z" fill="#163560"/>
<path d="M1098.65 1225.49C1098.65 1225.49 1103.37 1231.72 1112.83 1231.27C1120.44 1230.91 1123.37 1224.31 1123.37 1224.31C1123.37 1224.31 1109.39 1220.95 1098.65 1225.49Z" fill="#EBF3FA"/>
<path d="M959.915 1394.16C959.915 1394.16 958.175 1418.67 959.915 1448.08C961.069 1467.57 980.792 1493.69 983.589 1500.15C990.611 1516.35 998.528 1518.99 998.528 1518.99L1059.78 1534L1081.32 1539.27L1149.24 1518.99C1149.24 1518.99 1180.17 1432.64 1167.75 1384.03C1155.33 1335.43 1136.35 1301.68 1136.35 1301.68C1136.35 1301.68 1080.93 1355.93 1008.77 1297.07L959.915 1394.16Z" fill="#B0D0FF"/>
<path d="M977.843 1456.04C978.999 1475.53 980.792 1493.69 983.589 1500.15C990.611 1516.35 998.528 1518.99 998.528 1518.99L1059.78 1534L1086.39 1526.17C1086.39 1526.17 997.577 1512.72 1007.42 1436.31L977.843 1456.04Z" fill="#F2CCAA"/>
<path d="M1144.92 1532.09C1144.92 1532.09 1178.55 1636.79 1180.71 1672.43C1182.87 1708.07 1116.42 2178.79 1113.75 2195.21C1111.22 2210.69 1092 2220.56 1092 2220.56C1092 2220.56 1083.16 2225.77 1070.54 2222.21C1053.03 2217.27 1047.5 2211.35 1047.5 2211.35C1047.5 2211.35 1021.32 1875.64 1037.52 1755.72C1053.72 1635.8 1053.91 1532.09 1053.91 1532.09H1144.92Z" fill="#ED7D2B"/>
<path d="M1002.41 1528.97C1002.41 1528.97 951.108 1597.81 946.325 1644.35C941.543 1690.88 938.821 1854.33 928.631 1899.71C918.441 1945.07 881.001 2032.37 881.001 2173.87C881.001 2173.87 884.892 2181.97 896.909 2186.29C900.751 2187.68 905.9 2189.03 910.899 2190.16C920.808 2192.44 930.975 2187.6 935.499 2178.49C960.809 2127.53 1041.44 1963.16 1045.57 1929.04C1048.5 1904.89 1073.96 1745.08 1129.49 1651.31C1142.82 1628.8 1121.31 1539.27 1121.31 1539.27L1002.41 1528.97Z" fill="#F99746"/>
<path d="M1100.17 1226.64C1100.17 1226.64 1101.35 1231.67 1113.86 1230.89C1113.86 1230.89 1124.35 1230.24 1124.03 1224.72C1124.03 1224.72 1113.85 1220.79 1100.17 1226.64Z" fill="white"/>
<path d="M1150.29 1515.93C1150.29 1515.93 1136.79 1526.61 1109.96 1527.15C1077.92 1527.8 998.531 1518.99 998.531 1518.99C998.531 1518.99 995.003 1528.84 995.147 1539.24C995.147 1539.24 1092.11 1563.71 1148.29 1542.81C1148.29 1542.81 1155.54 1529.19 1150.29 1515.93Z" fill="#233862"/>
<path d="M1107.88 1538.21C1107.88 1544.67 1112.26 1549.92 1117.65 1549.92C1123.04 1549.92 1127.43 1544.67 1127.43 1538.21C1127.43 1531.76 1123.04 1526.51 1117.65 1526.51C1112.26 1526.51 1107.88 1531.76 1107.88 1538.21ZM1103.03 1538.21C1103.03 1529.09 1109.59 1521.67 1117.65 1521.67C1125.71 1521.67 1132.27 1529.09 1132.27 1538.21C1132.27 1547.33 1125.71 1554.76 1117.65 1554.76C1109.59 1554.76 1103.03 1547.33 1103.03 1538.21Z" fill="white"/>
<path d="M894.145 1534.87L993.489 1621.37L1111.9 1485.39L1012.56 1398.88L894.145 1534.87Z" fill="#B5453C"/>
<path d="M1020.94 1535.19C1020.94 1535.19 1057.34 1539.44 1057.22 1548.08C1057.11 1556.72 1048.15 1574.47 1043.66 1575.27C1039.16 1576.05 1014.03 1551.25 1014.03 1551.25L1020.94 1535.19Z" fill="#FFB27D"/>
<path d="M1008.77 1297.07C1008.77 1297.07 960.171 1300.48 941.543 1345.76C922.913 1391.05 887.569 1467.08 887.569 1479.87C887.569 1492.67 907.312 1532.09 1013.34 1554.76C1013.34 1554.76 1024.31 1543.23 1023.65 1534.11C1023.65 1534.11 957.459 1477.25 957.636 1470.6C957.972 1458.04 968.487 1441.44 1026.6 1383.32C1042.4 1367.51 1008.77 1297.07 1008.77 1297.07Z" fill="#B0D0FF"/>
<path d="M1545.68 2277.11H1545.21C1542.51 2277.11 1540.32 2274.88 1540.39 2272.16L1547.72 1954.29L1569.32 1951.77L1550.89 2272.19C1550.73 2274.95 1548.45 2277.11 1545.68 2277.11Z" fill="#B0D4FF"/>
<path d="M1419.79 2277.11H1419.32C1416.61 2277.11 1414.43 2274.88 1414.49 2272.16L1421.83 1954.29L1443.43 1951.77L1425 2272.19C1424.84 2274.95 1422.56 2277.11 1419.79 2277.11Z" fill="#95C0F4"/>
<path d="M1767.17 2277.11H1767.64C1770.35 2277.11 1772.53 2274.88 1772.48 2272.16L1765.13 1954.29L1743.53 1951.77L1761.96 2272.19C1762.12 2274.95 1764.4 2277.11 1767.17 2277.11Z" fill="#B0D4FF"/>
<path d="M1405.47 1934.57V1716.75C1405.47 1678.43 1436.55 1647.35 1474.87 1647.35H1631.8C1670.13 1647.35 1701.2 1678.43 1701.2 1716.75V1942.89L1405.47 1934.57Z" fill="#B0D4FF"/>
<path d="M1729.32 1968.96H1426.31C1414.8 1968.96 1405.47 1959.63 1405.47 1948.12V1934.57H1729.32V1968.96Z" fill="#95C0F4"/>
<path d="M1765.64 1968.96H1536.39C1527.88 1968.96 1520.99 1962.07 1520.99 1953.56V1949.99C1520.99 1941.47 1527.88 1934.57 1536.39 1934.57H1765.64C1774.15 1934.57 1781.04 1941.47 1781.04 1949.99V1953.56C1781.04 1962.07 1774.15 1968.96 1765.64 1968.96Z" fill="#B0D4FF"/>
<path d="M1756.73 1880.29C1734.25 1919.43 1705.97 1934.53 1705.97 1934.53H1588.33C1588.33 1934.53 1773.88 1850.45 1756.73 1880.29Z" fill="#233862"/>
<path d="M1666.39 2183.05C1663.32 2186.56 1662.92 2190.49 1664.44 2194.68C1664.44 2194.69 1664.45 2194.72 1664.47 2194.73C1667.28 2202.49 1676.55 2211.15 1687.32 2219.8C1688.69 2220.91 1689.92 2221.92 1690.99 2222.85C1691.27 2223.09 1691.55 2223.35 1691.8 2223.59C1692.03 2223.79 1692.23 2223.99 1692.44 2224.16C1702.48 2233.41 1698.69 2235.53 1716.73 2254.32C1737.31 2275.72 1751.47 2276.11 1755.49 2274.16C1758.91 2272.49 1751.99 2261.15 1744.31 2248.39C1743.93 2247.77 1743.57 2247.15 1743.19 2246.53C1742.17 2244.83 1741.15 2243.11 1740.13 2241.4C1731.15 2226.05 1733.45 2218.85 1735.59 2196C1737.32 2177.43 1764.48 2092.27 1764.48 2092.27L1725.05 2085.47C1725.05 2085.47 1713.19 2153.29 1700.11 2163.73C1693.12 2169.31 1685.28 2169.37 1678.56 2173.49C1678.09 2173.79 1677.63 2174.08 1677.17 2174.39C1673.35 2176.92 1669.45 2179.53 1666.39 2183.05Z" fill="#FFB27D"/>
<path d="M1666.39 2183.05C1663.32 2186.56 1662.92 2190.49 1664.44 2194.68C1664.44 2194.69 1664.45 2194.72 1664.47 2194.73C1667.91 2202.48 1676.95 2211.09 1687.35 2219.72C1688.71 2220.85 1689.91 2221.88 1690.99 2222.85C1691.27 2223.09 1691.55 2223.35 1691.8 2223.59C1692.03 2223.79 1692.23 2223.99 1692.44 2224.16C1702.48 2233.41 1698.69 2235.53 1716.73 2254.32C1737.31 2275.72 1751.47 2276.11 1755.49 2274.16C1758.91 2272.49 1751.99 2261.15 1744.31 2248.39C1740.31 2246.92 1721.71 2239.36 1707.64 2221.37C1695.25 2205.57 1687 2185.27 1678.56 2173.49C1678.09 2173.79 1677.63 2174.08 1677.17 2174.39C1673.35 2176.92 1669.45 2179.53 1666.39 2183.05Z" fill="#233862"/>
<path d="M1984.21 2158.43C1986.65 2170.6 2004 2168.57 2023.37 2163.83C2042.75 2159.09 2038.15 2164.73 2065.72 2161.68C2093.29 2158.63 2101.65 2148.33 2102.49 2144.24C2103.24 2140.6 2089.61 2139.32 2075 2137.64C2073.16 2137.43 2071.32 2137.2 2069.47 2136.97C2052.97 2134.91 2040.89 2124.25 2025.89 2115.51C2011.69 2107.23 1990.51 2073.48 1990.51 2073.48L1952.69 2076.47C1952.69 2076.47 1972.53 2106.61 1980.21 2119.72C1984.73 2127.43 1984.49 2137.63 1983.93 2145.49C1983.64 2149.77 1983.36 2154.15 1984.21 2158.43Z" fill="#FFB27D"/>
<path d="M2023.37 2163.83C2042.75 2159.09 2038.15 2164.73 2065.72 2161.68C2093.29 2158.63 2101.65 2148.33 2102.49 2144.24C2103.24 2140.6 2089.61 2139.32 2075 2137.64L2074.87 2137.92C2074.87 2137.92 2058.33 2149.64 2035.37 2150.19C2016.67 2150.64 1996.85 2145.28 1983.93 2145.49C1983.64 2149.77 1983.36 2154.15 1984.21 2158.43C1986.65 2170.6 2004 2168.57 2023.37 2163.83Z" fill="#233862"/>
<path d="M1839.28 1916.6L1803.93 2011.73L1757.77 2135.96C1757.77 2135.96 1745.25 2137.16 1733.25 2133.72C1722.21 2130.52 1709.53 2122.17 1709.53 2122.17C1709.53 2122.17 1722.36 1988.8 1746.27 1912.24C1752.39 1892.59 1759.25 1876.69 1766.84 1867.73C1803.89 1823.93 1839.28 1916.6 1839.28 1916.6Z" fill="#233862"/>
<path d="M1803.33 1765.52C1780.17 1758.05 1714.12 1767.64 1647.76 1780.63L1633.87 1757.71L1490.52 1746.52C1490.52 1746.52 1443.23 1851.41 1469.12 1918.24C1472.93 1928.07 1480.49 1934.36 1493.39 1934.57C1493.39 1934.57 1495.47 1934.57 1495.48 1934.57C1495.48 1934.57 1580.79 1934.52 1608.48 1934.52C1679.77 1934.52 1759.35 1885.52 1769.64 1883.47C1786.49 1880.09 1793.23 1913.8 1810.08 1949.17C1826.93 1984.56 1968.47 2105.88 1968.47 2105.88C1968.47 2105.88 1990.21 2106.09 1999.2 2102.72C2008.87 2099.09 2012.4 2094.39 2012.4 2094.39C2012.4 2094.39 1855.57 1782.37 1803.33 1765.52Z" fill="#2B478B"/>
<path d="M1628.23 1340.35C1609.87 1330.71 1581.92 1329.4 1577.39 1328.79C1523.07 1321.49 1490.37 1400.41 1488.45 1424.33C1484.91 1468.41 1461.59 1475.13 1428.77 1502.73C1362.96 1558.09 1382.25 1622.41 1418.24 1646.31C1439.84 1660.65 1477.89 1646.31 1477.89 1646.31C1478.43 1646.68 1581.97 1588.43 1633.01 1560.32C1709.53 1549.44 1675.01 1364.92 1628.23 1340.35Z" fill="#233862"/>
<path d="M1590.24 1536.4C1590.47 1536.55 1565.12 1545.19 1548.19 1537.69C1532.24 1530.64 1520.17 1504.43 1520.4 1504.41C1527.65 1504.08 1535.61 1497.73 1541.75 1456.13L1544.84 1457.25L1596.75 1475.93C1596.75 1475.93 1592.99 1492.59 1590.55 1508.44C1588.51 1521.76 1587.4 1534.52 1590.24 1536.4Z" fill="#FFB27D"/>
<path d="M1596.75 1475.93C1596.75 1475.93 1592.99 1492.59 1590.55 1508.44C1560.73 1503.08 1549.03 1473.37 1544.84 1457.25L1596.75 1475.93Z" fill="#ED975D"/>
<path d="M1604.48 1492.47C1604.48 1492.47 1533.45 1482.92 1540.07 1438.79C1546.68 1394.65 1541.97 1363.69 1587.6 1367.91C1633.23 1372.13 1639.49 1390.29 1640.87 1405.56C1642.24 1420.83 1623.12 1493.8 1604.48 1492.47Z" fill="#FFB27D"/>
<path d="M1638.28 1381.37C1638.28 1381.37 1592.81 1420.55 1561.89 1423.71C1530.96 1426.87 1519.25 1416.93 1519.25 1416.93C1519.25 1416.93 1537.48 1401.8 1548.45 1377.37C1551.68 1370.17 1558.52 1365.24 1566.39 1364.56C1588.47 1362.65 1630.32 1361.79 1638.28 1381.37Z" fill="#233862"/>
<path d="M1609.87 1377.85C1609.87 1377.85 1625.07 1392.56 1629.87 1403.47C1634.48 1414 1635.87 1439.17 1632.19 1449.17C1632.19 1449.17 1655.89 1403.09 1642.47 1380.71C1628.24 1356.96 1609.87 1377.85 1609.87 1377.85Z" fill="#233862"/>
<path d="M1650.04 1641.03C1647.89 1784.8 1649.45 1754.75 1633.73 1768.4C1629.93 1771.68 1619.28 1773.64 1605.27 1774.56C1561.17 1777.49 1483.68 1770.23 1480.73 1762.08C1470.56 1733.89 1477.75 1725.13 1469.27 1681.97C1468.37 1677.39 1467.28 1672.41 1466 1667C1458.92 1637.36 1452.04 1627.28 1477.13 1579.65C1499.89 1536.52 1523.53 1501.51 1525.67 1502.77C1585.71 1538.41 1590.55 1508.45 1590.55 1508.45C1590.55 1508.45 1651.09 1570.89 1650.04 1641.03Z" fill="white"/>
<path d="M1803.93 2011.73L1757.77 2135.96C1757.77 2135.96 1745.25 2137.16 1733.25 2133.72C1722.21 2130.52 1709.53 2122.17 1709.53 2122.17C1709.53 2122.17 1722.36 1988.8 1746.27 1912.24L1803.93 2011.73Z" fill="#2B478B"/>
<path d="M1590.55 1508.44C1590.55 1508.44 1652.33 1518.92 1659.59 1545.52C1666.84 1572.12 1709.53 1728.49 1709.53 1728.49C1709.53 1728.49 1678.13 1734.15 1663.61 1719.64C1649.11 1705.12 1613.13 1585.01 1613.13 1585.01L1590.55 1508.44Z" fill="white"/>
<path d="M1605.27 1774.56C1561.17 1777.49 1483.68 1770.23 1480.73 1762.08C1470.56 1733.89 1477.75 1725.13 1469.27 1681.97L1490.52 1622.09C1490.52 1622.09 1487.01 1688.77 1506.67 1706.31C1526.32 1723.84 1587.17 1740.16 1596.73 1754.81C1601.35 1761.85 1604.39 1768.89 1605.27 1774.56Z" fill="#EBF3FF"/>
<path d="M1554.76 1746.52C1554.76 1746.52 1598.25 1736.84 1605.27 1740.69C1612.28 1744.56 1629.43 1758.61 1631.59 1763.51C1633.73 1768.4 1615.96 1759.79 1610.17 1758.24C1606.44 1757.24 1596.57 1760.65 1591.71 1762.28C1571.17 1769.13 1558.6 1765.61 1558.6 1765.61L1554.76 1746.52Z" fill="#FFB27D"/>
<path d="M1525.63 1502.73C1525.63 1502.73 1467.23 1506.33 1447.01 1534.53C1418.55 1574.23 1362.09 1743.37 1394.45 1765.95C1430.89 1791.35 1560.28 1772.59 1560.28 1772.59C1560.28 1772.59 1564.59 1752.47 1558.6 1742.72C1552.6 1732.99 1455.25 1717.27 1450.76 1712.77C1446.27 1708.28 1506.92 1625.15 1506.92 1611.67C1506.92 1598.19 1525.63 1502.73 1525.63 1502.73Z" fill="white"/>
<path d="M1607.37 1752.8C1607.37 1752.8 1616.48 1764.56 1619.47 1765.96C1622.45 1767.36 1624.39 1767.01 1624.39 1767.01L1618.25 1755.96L1607.37 1752.8Z" fill="#FFB27D"/>
<path d="M1605.27 1740.69L1631.76 1753.56C1631.76 1753.56 1630.63 1755.4 1627.37 1755.25C1624.11 1755.11 1615.88 1752.09 1615.88 1752.09L1605.27 1740.69Z" fill="#FFB27D"/>
<path d="M1619.47 1783.97H1829.05L1892.11 1627.19H1682.84L1619.47 1783.97Z" fill="#F99746"/>
<path d="M1831.51 1777.85H1554.76V1783.97H1829.05L1831.51 1777.85Z" fill="#ED7D2B"/>
<path d="M1776.15 1705.57C1777.73 1700.07 1774.55 1695.6 1769.03 1695.6C1763.52 1695.6 1757.77 1700.07 1756.19 1705.57C1754.61 1711.08 1757.8 1715.56 1763.31 1715.56C1768.83 1715.56 1774.57 1711.08 1776.15 1705.57Z" fill="white"/>
<path d="M2714.11 2282.92H2714.72C2718.31 2282.92 2721.2 2279.79 2721.12 2275.99L2711.41 1830.92L2682.85 1827.39L2707.21 2276.01C2707.43 2279.89 2710.45 2282.92 2714.11 2282.92Z" fill="#78ACEA"/>
<path d="M1555.8 2282.92H1555.19C1551.6 2282.92 1548.71 2279.79 1548.79 2275.99L1558.49 1830.92L1587.05 1827.39L1562.69 2276.01C1562.48 2279.89 1559.45 2282.92 1555.8 2282.92Z" fill="#78ACEA"/>
<path d="M2748.52 1839.11H1526.19C1516.17 1839.11 1508.05 1830.99 1508.05 1820.97V1803.53C1508.05 1793.52 1516.17 1785.4 1526.19 1785.4H2748.52C2758.53 1785.4 2766.64 1793.52 2766.64 1803.53V1820.97C2766.64 1830.99 2758.53 1839.11 2748.52 1839.11Z" fill="#78ACEA"/>
<path d="M1259.8 1022.61C1255.18 908.333 1350.96 857.56 1448.91 857.56C1546.84 857.56 1653.43 882.933 1662.65 1034.89C1668.6 1132.65 1616.48 1192.8 1466.43 1192.8C1415.81 1192.8 1376.48 1184.81 1346.35 1170.59L1271.34 1237.24L1308.2 1145.11C1275.55 1114.75 1261.79 1071.92 1259.8 1022.61Z" fill="#DFEDFB"/>
<path d="M3485.8 2282.43C3485.8 2282.43 3488.55 2260.96 3494.93 2248.2C3501.32 2235.43 3541.93 2243.55 3541.93 2243.55C3541.93 2243.55 3550.05 2250.52 3551.8 2283.01L3485.8 2282.43Z" fill="#233862"/>
<path d="M3347.43 2282.13C3356.96 2276.31 3351.53 2232.85 3351.53 2232.85C3351.53 2232.85 3307.07 2197.28 3300.95 2224.52C3294.84 2251.76 3258.71 2263.99 3238.13 2267.32C3223.95 2269.63 3219.55 2277.48 3218.19 2282.13H3347.43Z" fill="#233862"/>
<path d="M3439.53 1966.08C3437.72 1976.05 3436.57 1984.24 3436.27 1990.11C3432.13 2070.73 3368.39 2255.11 3356.99 2259.4C3339.35 2266.05 3311.57 2251.91 3297.04 2247.28C3291.01 2245.36 3286.95 2239.28 3288.29 2233.12C3319.85 2088 3331.45 1879.04 3335.68 1755.32C3337.81 1693.01 3348.51 1649.97 3348.51 1649.97C3348.51 1649.97 3503.97 1608.49 3504.89 1660.96C3505.71 1707.39 3453.4 1889.48 3439.53 1966.08Z" fill="#213F7A"/>
<path d="M3439.53 1966.08L3335.68 1755.32C3337.81 1693.01 3348.51 1649.97 3348.51 1649.97C3348.51 1649.97 3503.97 1608.49 3504.89 1660.96C3505.71 1707.39 3453.4 1889.48 3439.53 1966.08Z" fill="#233862"/>
<path d="M3404.95 1661.15L3487.12 2256.79C3487.12 2256.79 3523.21 2265.49 3551.28 2258.53C3551.28 2258.53 3575.35 1941.73 3573.35 1865.15C3571.33 1788.56 3590.61 1660.21 3568.95 1646.07C3547.28 1631.91 3404.95 1661.15 3404.95 1661.15Z" fill="#213F7A"/>
<path d="M3584.96 1651.21C3585.36 1656.6 3581.92 1661.49 3576.73 1663C3565.27 1666.32 3552.05 1668.64 3526.56 1673.92C3502.61 1678.89 3470.4 1683.29 3430.83 1683.55C3367.87 1683.95 3344.04 1662.24 3344.04 1662.24C3341.32 1662.29 3345.47 1649.12 3349.2 1586.48C3350.47 1565.25 3351.68 1538.36 3352.56 1504.36C3353.36 1473.77 3353.89 1437.43 3353.95 1394.32C3354.01 1342.45 3434.29 1286.67 3435.77 1286.67L3435.79 1286.68C3435.79 1294.15 3447.56 1307.93 3465.68 1309.12C3487.2 1310.53 3513.59 1299.83 3513.59 1287.43C3513.59 1287.31 3552.48 1349.65 3566.29 1416.08C3573.28 1449.51 3570.45 1448.61 3584.96 1651.21Z" fill="#B0D0FF"/>
<path d="M3435.77 1286.67C3435.77 1286.67 3361.12 1286.03 3343.16 1311.23C3325.2 1336.43 3285.81 1471.96 3306.36 1517.05C3326.92 1562.16 3365.37 1498.4 3386.72 1470.77C3408.07 1443.15 3435.77 1286.67 3435.77 1286.67Z" fill="#B0D0FF"/>
<path d="M3435.01 1275.27L3435.05 1282.99C3435.05 1282.99 3432.95 1307.12 3462.67 1310.64C3492.39 1314.17 3514.44 1306.13 3513.63 1287.52C3510.95 1273.09 3508.47 1258.29 3508.27 1246.36C3508.2 1241.92 3508.51 1237.23 3509.33 1231.91L3451.75 1230.76L3434.79 1233.53L3435.01 1275.27Z" fill="#FFB27D"/>
<path d="M3434.79 1233.53L3435.01 1275.27C3441.12 1278.12 3448.03 1279.85 3455.76 1279.85C3482.23 1279.85 3499.33 1260.44 3508.27 1246.36C3508.2 1241.92 3508.51 1237.23 3509.33 1231.91L3451.75 1230.76L3434.79 1233.53Z" fill="#E2915A"/>
<path d="M3513.75 1222.64C3507.07 1258.6 3460.67 1257.41 3440.61 1255.16C3434.97 1254.53 3431.43 1253.81 3431.43 1253.81C3425.07 1252.11 3421.51 1242.09 3419.87 1228.96C3416.59 1202.99 3420.72 1164.85 3425.11 1155.11C3431.72 1140.43 3444.16 1124.56 3490.88 1136.01C3537.61 1147.47 3522.32 1176.57 3513.75 1222.64Z" fill="#FFB27D"/>
<path d="M3359.44 1387.67C3359.44 1387.67 3330.57 1451.43 3331.41 1470.55C3331.41 1470.55 3345.71 1470.05 3359.44 1474.15C3382.01 1480.87 3359.44 1387.67 3359.44 1387.67Z" fill="#98BAF4"/>
<path d="M3410.77 1120.88C3410.77 1120.88 3431.33 1119.29 3455.6 1108.75C3475.28 1100.19 3500.12 1109.61 3508.19 1113.87C3507.97 1112.56 3507.45 1110.79 3506.21 1109.01C3506.21 1109.01 3509.84 1111.59 3510.37 1115.17C3510.75 1115.44 3510.91 1115.64 3510.81 1115.69C3510.81 1115.69 3514.92 1114.95 3517.56 1116.13C3517.56 1116.13 3515.71 1115.87 3515.05 1117.05C3514.99 1117.19 3514.88 1117.29 3514.76 1117.39C3545.47 1132.23 3548.31 1180.76 3538.41 1191.99C3526.53 1205.49 3508.57 1236.07 3508.57 1236.07C3508.57 1236.07 3507.07 1228.73 3509.24 1216.84C3511.4 1204.96 3501.13 1204.96 3488.16 1199.55C3475.19 1194.15 3486 1179.01 3474.64 1169.83C3463.29 1160.64 3421.68 1166.04 3422.23 1159.01C3406.77 1153.39 3410.77 1122.47 3410.77 1120.88Z" fill="#233862"/>
<path d="M3523.15 1507.11C3510.96 1556.04 3379.16 1581.33 3349.2 1586.48C3350.47 1565.25 3351.68 1538.36 3352.56 1504.36L3523.15 1507.11Z" fill="#98BAF4"/>
<path d="M3494.21 1523.01C3495.48 1523.01 3523.52 1518.83 3528.55 1516.32C3533.56 1513.8 3556.53 1481.16 3541.49 1472.79C3526.45 1464.41 3486.07 1497.89 3486.07 1497.89L3494.21 1523.01Z" fill="#FFB27D"/>
<path d="M3323.65 1532.71C3323.65 1532.71 3432.11 1538.6 3504.89 1523.01C3504.89 1523.01 3506.73 1501.99 3483.87 1492.64C3483.87 1492.64 3370.41 1468.6 3343.16 1475.29C3315.91 1481.99 3323.65 1532.71 3323.65 1532.71Z" fill="#B0D0FF"/>
<path d="M3572.73 1447.59C3550.23 1474.73 3520.8 1496.89 3488.36 1502.08H3488.35C3488.08 1501.67 3478.53 1487.16 3480.32 1465.85C3481.15 1455.99 3484.41 1444.67 3492.13 1432.6C3494.51 1428.89 3496.63 1424.56 3498.51 1419.75C3516.23 1374.55 3513.59 1287.43 3513.59 1287.43C3513.59 1287.43 3588.81 1295.31 3612.25 1328.8C3626.61 1349.31 3608.31 1404.68 3572.73 1447.59Z" fill="#B0D0FF"/>
<path d="M3440.61 1255.16C3434.97 1254.53 3431.43 1253.81 3431.43 1253.81C3425.07 1252.11 3421.51 1242.09 3419.87 1228.96C3431.79 1231.91 3437.25 1241.12 3439.53 1245.04C3440.56 1246.81 3440.77 1250.77 3440.61 1255.16Z" fill="#E2915A"/>
<path d="M3410.31 1275.49C3410.31 1275.49 3384.33 1232.63 3404.53 1230.76C3424.73 1228.89 3432.85 1242.57 3435.77 1247.59C3438.69 1252.61 3435.01 1275.27 3435.01 1275.27L3410.31 1275.49Z" fill="#FFB27D"/>
<path d="M3509.33 1464.41C3508.53 1469.84 3506.91 1474.84 3504.91 1479.29C3498.56 1493.39 3488.36 1502.08 3488.36 1502.08H3488.35C3420.88 1471.61 3407.23 1367.04 3404.93 1309.57C3404.01 1286.48 3404.93 1270.99 3404.93 1270.99C3435.37 1260.91 3443.93 1278.43 3443.93 1278.43C3443.93 1278.43 3479.87 1363.89 3498.51 1419.75C3505.64 1441.12 3510.24 1458.16 3509.33 1464.41Z" fill="#B0D0FF"/>
<path d="M3572.73 1447.59C3550.23 1474.73 3520.8 1496.89 3488.36 1502.08H3488.35C3420.88 1471.61 3407.23 1367.04 3404.93 1309.57C3404.93 1309.57 3436.87 1425.37 3480.32 1465.85C3488.17 1473.17 3496.41 1478.03 3504.91 1479.29C3504.91 1479.29 3559.71 1463.81 3571.2 1449.23C3572.01 1448.17 3572.52 1447.65 3572.73 1447.59Z" fill="#98BAF4"/>
<path d="M2343.79 1785.4H2134.2L2071.15 1628.61H2280.41L2343.79 1785.4Z" fill="#2B478B"/>
<path d="M2131.75 1779.29H2408.49V1785.4H2134.2L2131.75 1779.29Z" fill="#2B478B"/>
<path d="M2187.11 1707.01C2185.52 1701.49 2188.71 1697.03 2194.23 1697.03C2199.73 1697.03 2205.48 1701.49 2207.07 1707.01C2208.64 1712.52 2205.45 1716.99 2199.95 1716.99C2194.43 1716.99 2188.68 1712.52 2187.11 1707.01Z" fill="white"/>
<path d="M4043.99 2278.95V2280.28C4043.99 2282.41 4042.01 2284.16 4039.63 2284.16H194.98C192.585 2284.16 190.613 2282.41 190.613 2280.28V2278.95C190.613 2276.81 192.585 2275.05 194.98 2275.05H4039.63C4042.01 2275.05 4043.99 2276.81 4043.99 2278.95Z" fill="#2E3552"/>
</svg>
